<svg width="1032" height="253" viewBox="0 0 1032 253" fill="none" xmlns="http://www.w3.org/2000/svg">
<path d="M307.392 121.968L596.434 122.763" stroke="#2D2D2D" stroke-width="2" stroke-linecap="round"/>
<circle r="23.9232" transform="matrix(1 0 0 -1 307.923 122.5)" fill="#2D2D2D"/>
<circle r="23.9232" transform="matrix(1 0 0 -1 613.077 122.5)" fill="#2D2D2D"/>
<path d="M23.12 43.88L6.76 36.76V33.24L23.12 26.08V29.52L10.6 35L23.12 40.44V43.88ZM33.1628 47V17.4H37.5628V27.24C38.3628 26.76 39.1361 26.36 39.8828 26.04C40.6295 25.72 41.3895 25.48 42.1628 25.32C42.9628 25.1333 43.8028 25.04 44.6828 25.04C45.9895 25.04 47.0961 25.28 48.0028 25.76C48.9095 26.2133 49.5895 26.8933 50.0428 27.8C50.5228 28.68 50.7628 29.7733 50.7628 31.08V47H46.4028V32.36C46.4028 31.16 46.1095 30.2667 45.5228 29.68C44.9361 29.0667 44.0561 28.76 42.8828 28.76C42.2695 28.76 41.6561 28.8267 41.0428 28.96C40.4561 29.0933 39.8828 29.28 39.3228 29.52C38.7628 29.7333 38.1761 30 37.5628 30.32V47H33.1628ZM70.1113 47.4C68.5379 47.4 67.1513 47.2 65.9513 46.8C64.7779 46.3733 63.7646 45.7333 62.9113 44.88C62.0846 44.0267 61.4579 42.9333 61.0313 41.6C60.6046 40.24 60.3913 38.64 60.3913 36.8C60.3913 34.64 60.6446 32.8133 61.1513 31.32C61.6846 29.8 62.4046 28.5867 63.3113 27.68C64.2446 26.7467 65.3246 26.08 66.5513 25.68C67.8046 25.2533 69.1646 25.04 70.6313 25.04C73.5113 25.04 75.6313 25.7867 76.9913 27.28C78.3779 28.7733 79.0713 31.2 79.0713 34.56C79.0713 34.7467 79.0579 35.0133 79.0312 35.36C79.0312 35.68 79.0312 36 79.0312 36.32C78.4179 36.3733 77.6313 36.44 76.6713 36.52C75.7379 36.6 74.6579 36.68 73.4313 36.76C72.2046 36.84 70.8713 36.9067 69.4313 36.96C67.9913 37.0133 66.4846 37.0533 64.9112 37.08C64.8846 37.1867 64.8713 37.3067 64.8713 37.44C64.8713 37.5467 64.8713 37.6667 64.8713 37.8C64.8713 39.2667 65.0979 40.4533 65.5513 41.36C66.0046 42.24 66.6713 42.8933 67.5513 43.32C68.4313 43.72 69.5379 43.92 70.8713 43.92C71.6713 43.92 72.4979 43.88 73.3513 43.8C74.2313 43.6933 75.0846 43.5733 75.9113 43.44C76.7379 43.28 77.5246 43.1067 78.2713 42.92L78.8313 46.16C78.0313 46.4 77.1646 46.6267 76.2313 46.84C75.3246 47.0267 74.3646 47.16 73.3513 47.24C72.3379 47.3467 71.2579 47.4 70.1113 47.4ZM64.9513 34.16C66.0713 34.16 67.1379 34.1467 68.1513 34.12C69.1913 34.0667 70.1513 34.0133 71.0313 33.96C71.9113 33.9067 72.6579 33.8667 73.2713 33.84C73.9113 33.7867 74.3913 33.7467 74.7113 33.72C74.6846 32.3867 74.5113 31.32 74.1913 30.52C73.8713 29.72 73.3913 29.1467 72.7513 28.8C72.1113 28.4267 71.2979 28.24 70.3113 28.24C69.6979 28.24 69.0979 28.3333 68.5113 28.52C67.9246 28.68 67.3779 28.9867 66.8713 29.44C66.3913 29.8667 65.9779 30.4667 65.6313 31.24C65.2846 31.9867 65.0579 32.96 64.9513 34.16ZM92.9994 17.4V40.56C92.9994 41.4133 93.0927 42.0667 93.2794 42.52C93.466 42.9467 93.7194 43.24 94.0394 43.4C94.3594 43.56 94.7194 43.64 95.1194 43.64C95.4127 43.64 95.7194 43.6133 96.0394 43.56C96.3594 43.5067 96.706 43.4133 97.0794 43.28L97.5194 46.64C97.0394 46.8533 96.4927 47.0267 95.8794 47.16C95.266 47.32 94.6127 47.4 93.9194 47.4C92.7994 47.4 91.8394 47.2133 91.0394 46.84C90.266 46.44 89.6794 45.7733 89.2794 44.84C88.8794 43.88 88.6794 42.5733 88.6794 40.92V17.4H92.9994ZM109.859 17.4V40.56C109.859 41.4133 109.952 42.0667 110.139 42.52C110.325 42.9467 110.579 43.24 110.899 43.4C111.219 43.56 111.579 43.64 111.979 43.64C112.272 43.64 112.579 43.6133 112.899 43.56C113.219 43.5067 113.565 43.4133 113.939 43.28L114.379 46.64C113.899 46.8533 113.352 47.0267 112.739 47.16C112.125 47.32 111.472 47.4 110.779 47.4C109.659 47.4 108.699 47.2133 107.899 46.84C107.125 46.44 106.539 45.7733 106.139 44.84C105.739 43.88 105.539 42.5733 105.539 40.92V17.4H109.859ZM121.438 36.2C121.438 34.3333 121.598 32.7067 121.918 31.32C122.265 29.9333 122.811 28.7867 123.558 27.88C124.305 26.9467 125.305 26.24 126.558 25.76C127.811 25.28 129.358 25.04 131.198 25.04C133.038 25.04 134.585 25.28 135.838 25.76C137.091 26.24 138.091 26.9467 138.838 27.88C139.585 28.7867 140.118 29.9333 140.438 31.32C140.785 32.7067 140.958 34.3333 140.958 36.2C140.958 38.0933 140.771 39.7467 140.398 41.16C140.051 42.5733 139.491 43.7467 138.718 44.68C137.945 45.5867 136.931 46.2667 135.678 46.72C134.451 47.1733 132.958 47.4 131.198 47.4C129.438 47.4 127.931 47.1733 126.678 46.72C125.451 46.2667 124.451 45.5867 123.678 44.68C122.905 43.7467 122.331 42.5733 121.958 41.16C121.611 39.7467 121.438 38.0933 121.438 36.2ZM125.878 36.2C125.878 38.1467 126.051 39.6933 126.398 40.84C126.771 41.9867 127.345 42.8133 128.118 43.32C128.918 43.8267 129.945 44.08 131.198 44.08C132.451 44.08 133.465 43.8267 134.238 43.32C135.011 42.8133 135.571 41.9867 135.918 40.84C136.291 39.6933 136.478 38.1467 136.478 36.2C136.478 34.2533 136.318 32.72 135.998 31.6C135.678 30.4533 135.118 29.64 134.318 29.16C133.545 28.6533 132.505 28.4 131.198 28.4C129.865 28.4 128.811 28.6533 128.038 29.16C127.265 29.64 126.705 30.4533 126.358 31.6C126.038 32.72 125.878 34.2533 125.878 36.2ZM150.096 37.16V33.48H160.296V37.16H150.096ZM173.466 47L167.986 25.56L172.306 25.4L176.146 42.8L180.306 25.44H184.906L189.106 42.8L192.946 25.4L197.226 25.56L191.586 47H186.746L182.546 30.56L178.426 47H173.466ZM204.477 36.2C204.477 34.3333 204.637 32.7067 204.957 31.32C205.304 29.9333 205.851 28.7867 206.597 27.88C207.344 26.9467 208.344 26.24 209.597 25.76C210.851 25.28 212.397 25.04 214.237 25.04C216.077 25.04 217.624 25.28 218.877 25.76C220.131 26.24 221.131 26.9467 221.877 27.88C222.624 28.7867 223.157 29.9333 223.477 31.32C223.824 32.7067 223.997 34.3333 223.997 36.2C223.997 38.0933 223.811 39.7467 223.437 41.16C223.091 42.5733 222.531 43.7467 221.757 44.68C220.984 45.5867 219.971 46.2667 218.717 46.72C217.491 47.1733 215.997 47.4 214.237 47.4C212.477 47.4 210.971 47.1733 209.717 46.72C208.491 46.2667 207.491 45.5867 206.717 44.68C205.944 43.7467 205.371 42.5733 204.997 41.16C204.651 39.7467 204.477 38.0933 204.477 36.2ZM208.917 36.2C208.917 38.1467 209.091 39.6933 209.437 40.84C209.811 41.9867 210.384 42.8133 211.157 43.32C211.957 43.8267 212.984 44.08 214.237 44.08C215.491 44.08 216.504 43.8267 217.277 43.32C218.051 42.8133 218.611 41.9867 218.957 40.84C219.331 39.6933 219.517 38.1467 219.517 36.2C219.517 34.2533 219.357 32.72 219.037 31.6C218.717 30.4533 218.157 29.64 217.357 29.16C216.584 28.6533 215.544 28.4 214.237 28.4C212.904 28.4 211.851 28.6533 211.077 29.16C210.304 29.64 209.744 30.4533 209.397 31.6C209.077 32.72 208.917 34.2533 208.917 36.2ZM237.584 25.44V28.08C238.357 27.36 239.077 26.7867 239.744 26.36C240.437 25.9067 241.13 25.5733 241.824 25.36C242.517 25.1467 243.25 25.04 244.024 25.04C244.53 25.04 245.037 25.08 245.544 25.16C246.077 25.24 246.57 25.3467 247.024 25.48L246.304 29.44C245.824 29.3067 245.33 29.2133 244.824 29.16C244.344 29.08 243.877 29.04 243.424 29.04C242.57 29.04 241.69 29.2133 240.784 29.56C239.904 29.9067 238.957 30.4933 237.944 31.32V47H233.664V25.44H237.584ZM259.765 17.4V40.56C259.765 41.4133 259.858 42.0667 260.045 42.52C260.232 42.9467 260.485 43.24 260.805 43.4C261.125 43.56 261.485 43.64 261.885 43.64C262.178 43.64 262.485 43.6133 262.805 43.56C263.125 43.5067 263.472 43.4133 263.845 43.28L264.285 46.64C263.805 46.8533 263.258 47.0267 262.645 47.16C262.032 47.32 261.378 47.4 260.685 47.4C259.565 47.4 258.605 47.2133 257.805 46.84C257.032 46.44 256.445 45.7733 256.045 44.84C255.645 43.88 255.445 42.5733 255.445 40.92V17.4H259.765ZM285.944 47.04L285.424 45.2C284.251 45.9467 283.118 46.5067 282.024 46.88C280.931 47.2267 279.798 47.4 278.624 47.4C276.304 47.4 274.504 46.48 273.224 44.64C271.971 42.8 271.344 40.1467 271.344 36.68C271.344 34.0133 271.691 31.8267 272.384 30.12C273.104 28.4133 274.198 27.1467 275.664 26.32C277.158 25.4667 279.011 25.04 281.224 25.04C281.864 25.04 282.544 25.08 283.264 25.16C283.984 25.2133 284.691 25.3067 285.384 25.44V17.4H289.744V47.04H285.944ZM285.384 42.04V28.8C284.638 28.6133 283.944 28.48 283.304 28.4C282.691 28.32 282.118 28.28 281.584 28.28C280.278 28.28 279.198 28.5467 278.344 29.08C277.491 29.5867 276.864 30.4267 276.464 31.6C276.064 32.7733 275.864 34.3467 275.864 36.32C275.864 37.9733 276.038 39.36 276.384 40.48C276.731 41.5733 277.224 42.4 277.864 42.96C278.531 43.4933 279.331 43.76 280.264 43.76C280.798 43.76 281.331 43.7067 281.864 43.6C282.424 43.4667 282.984 43.28 283.544 43.04C284.104 42.7733 284.718 42.44 285.384 42.04ZM297.119 55.4L308.479 17.4H312.039L300.679 55.4H297.119ZM336.237 36.76L319.877 43.88V40.48L332.397 35L319.877 29.56V26.08L336.237 33.28V36.76Z" fill="black"/>
<rect x="1" y="93" width="246" height="58" rx="29" fill="white"/>
<path d="M52.6 140.12C51.3733 140.12 50.64 139.747 50.4 139C50.1867 138.413 50.2933 137.987 50.72 137.72C51.0933 137.453 51.64 137.333 52.36 137.36C53.8267 137.36 54.68 137.347 54.92 137.32C55.2667 137.32 55.4933 137.267 55.6 137.16C55.7333 137.053 55.8 136.853 55.8 136.56V116.88C55.8 115.947 56.28 115.48 57.24 115.48C58.1733 115.48 58.64 115.947 58.64 116.88V126.04V136.56C58.64 137.44 58.52 138.107 58.28 138.56C58.0667 139.013 57.6667 139.36 57.08 139.6C56.28 139.893 54.7867 140.067 52.6 140.12ZM30.48 140.08C29.5467 140.08 29.08 139.627 29.08 138.72V118.6C29.08 117.907 29.2933 117.347 29.72 116.92C30.1467 116.493 30.7067 116.28 31.4 116.28H35.88H40.4C41.0933 116.28 41.6533 116.493 42.08 116.92C42.5067 117.347 42.72 117.907 42.72 118.6V136.84C42.72 137.613 42.6133 138.213 42.4 138.64C42.2133 139.067 41.8667 139.387 41.36 139.6C40.72 139.867 39.4 140.027 37.4 140.08C36.3867 140.08 35.7467 139.747 35.48 139.08C35.2667 138.547 35.3467 138.16 35.72 137.92C36.04 137.68 36.5333 137.573 37.2 137.6C38.32 137.6 38.9733 137.587 39.16 137.56C39.4533 137.533 39.6533 137.467 39.76 137.36C39.8667 137.28 39.92 137.093 39.92 136.8V119.72C39.92 119.16 39.64 118.88 39.08 118.88H32.68C32.12 118.88 31.84 119.16 31.84 119.72V138.72C31.84 139.627 31.3867 140.08 30.48 140.08ZM38.68 132.12C38.2 132.813 37.68 132.92 37.12 132.44C36.7733 132.173 36.1733 131.773 35.32 131.24C34.5733 130.787 33.8667 130.4 33.2 130.08C32.4533 129.733 32.3467 129.227 32.88 128.56C33.2533 128.107 33.7067 128 34.24 128.24C35.9467 128.96 37.4133 129.787 38.64 130.72C39.0933 131.067 39.1067 131.533 38.68 132.12ZM48.36 133C47.4 133 46.92 132.533 46.92 131.6V118.08C46.92 117.147 47.4 116.68 48.36 116.68C49.2933 116.68 49.76 117.147 49.76 118.08V124.84V131.6C49.76 132.533 49.2933 133 48.36 133ZM38.88 125.48C38.4 126.173 37.8667 126.293 37.28 125.84C36.96 125.6 36.4 125.24 35.6 124.76C34.9333 124.36 34.2533 124 33.56 123.68C32.7867 123.36 32.6667 122.853 33.2 122.16C33.5733 121.707 34.0267 121.587 34.56 121.8C36.2667 122.493 37.68 123.24 38.8 124.04C39.2533 124.387 39.28 124.867 38.88 125.48ZM27.8 112.76C26.8933 112.76 26.44 112.307 26.44 111.4C26.44 110.493 26.8933 110.04 27.8 110.04H35.96C35.32 108.76 34.5067 107.467 33.52 106.16C32.72 105.173 32.8933 104.48 34.04 104.08C34.7333 103.84 35.32 104 35.8 104.56C36.84 105.84 37.6267 106.933 38.16 107.84C38.4 108.24 38.4267 108.653 38.24 109.08C38.08 109.507 37.7333 109.813 37.2 110L37.08 110.04H50.52L49.6 109.68C49.3867 109.6 49.24 109.48 49.16 109.32C49.1067 109.16 49.1467 109 49.28 108.84C50.4 107.373 51.3467 106 52.12 104.72C52.5467 103.893 53.2133 103.627 54.12 103.92C55.32 104.32 55.5333 105.08 54.76 106.2C53.6933 107.72 52.7067 109 51.8 110.04H60.24C61.1467 110.04 61.6 110.493 61.6 111.4C61.6 112.307 61.1467 112.76 60.24 112.76H44H27.8ZM97.96 140.04C97.0267 140.093 96.4267 139.787 96.16 139.12C95.7867 138.133 96.28 137.667 97.64 137.72C97.72 137.72 97.8267 137.707 97.96 137.68H98.08C98.3733 137.68 98.52 137.533 98.52 137.24V127.72C98.52 127.16 98.24 126.88 97.68 126.88H94.84V138.4C94.84 139.147 94.4667 139.52 93.72 139.52C92.9467 139.52 92.56 139.147 92.56 138.4V126.88H88.88V138.44C88.88 139.213 88.4933 139.6 87.72 139.6C86.9467 139.6 86.56 139.213 86.56 138.44V126.88H83.88C83.32 126.88 83.04 127.16 83.04 127.72V138.72C83.04 139.573 82.6133 140 81.76 140C80.88 140 80.44 139.573 80.44 138.72V126.64C80.44 125.947 80.6533 125.387 81.08 124.96C81.5067 124.533 82.0667 124.32 82.76 124.32H88.04C88.3333 123.12 88.5867 121.88 88.8 120.6H80.48C79.6 120.6 79.16 120.16 79.16 119.28C79.16 118.4 79.6 117.96 80.48 117.96H90.56H100.68C101.56 117.96 102 118.4 102 119.28C102 120.16 101.56 120.6 100.68 120.6H92.08C92.0267 120.733 91.96 120.947 91.88 121.24C91.4267 122.68 91.0933 123.707 90.88 124.32H98.88C99.5733 124.32 100.133 124.533 100.56 124.96C100.987 125.387 101.2 125.947 101.2 126.64V137.28C101.2 138.533 100.867 139.307 100.2 139.6C99.7467 139.84 99 139.987 97.96 140.04ZM67.64 134.56C67.16 134.667 66.8 134.627 66.56 134.44C66.32 134.253 66.1333 133.907 66 133.4C65.8667 132.867 65.8667 132.48 66 132.24C66.1333 131.973 66.4533 131.787 66.96 131.68C69.3333 131.227 71.7067 130.72 74.08 130.16L73.44 130C73.1467 129.92 73.0267 129.773 73.08 129.56C73.8267 126.093 74.4667 121.867 75 116.88C75.08 115.947 75.6133 115.573 76.6 115.76C77.4267 115.947 77.7867 116.48 77.68 117.36C76.7733 122.907 75.9867 127.08 75.32 129.88L77.4 129.44L78.16 129.28C79.04 129.093 79.5333 129.44 79.64 130.32C79.72 131.12 79.3733 131.627 78.6 131.84C77.5867 132.08 76.08 132.453 74.08 132.96C71.0933 133.68 68.9467 134.213 67.64 134.56ZM70.04 128.76C69.16 128.92 68.7067 128.6 68.68 127.8C68.6267 126.2 68.5067 124.533 68.32 122.8C68.0533 120.613 67.7733 118.747 67.48 117.2C67.3733 116.453 67.6933 116.027 68.44 115.92C69.1867 115.787 69.6133 116.08 69.72 116.8C70.4933 120.64 70.9467 124.267 71.08 127.68C71.1067 128.267 70.76 128.627 70.04 128.76ZM83.24 114.96C82.5467 114.96 81.9867 114.747 81.56 114.32C81.1333 113.893 80.92 113.333 80.92 112.64V106.84C80.92 105.96 81.3733 105.52 82.28 105.52C83.16 105.52 83.6 105.96 83.6 106.84V111.48C83.6 112.04 83.88 112.32 84.44 112.32H89.08V105C89.08 104.067 89.5467 103.6 90.48 103.6C91.4133 103.6 91.88 104.067 91.88 105V112.32H97.04C97.6 112.32 97.88 112.04 97.88 111.48V106.88C97.88 105.973 98.3467 105.52 99.28 105.52C100.187 105.52 100.64 105.973 100.64 106.88V112.64C100.64 113.333 100.427 113.893 100 114.32C99.5733 114.747 99.0133 114.96 98.32 114.96H90.76H83.24ZM67.68 114.2C66.8 114.2 66.36 113.747 66.36 112.84C66.36 111.96 66.8 111.52 67.68 111.52H71.36V105.36C71.36 104.48 71.8133 104.04 72.72 104.04C73.6 104.04 74.04 104.48 74.04 105.36V111.52H77.48C78.36 111.52 78.8 111.96 78.8 112.84C78.8 113.747 78.36 114.2 77.48 114.2H72.56H67.68ZM107.84 137C106.853 137 106.36 136.507 106.36 135.52C106.36 134.533 106.853 134.04 107.84 134.04H122.28V111.08H109.96C108.947 111.08 108.44 110.573 108.44 109.56C108.44 108.547 108.947 108.04 109.96 108.04H138.2C139.213 108.04 139.72 108.547 139.72 109.56C139.72 110.573 139.213 111.08 138.2 111.08H125.52V134.04H140.24C141.227 134.04 141.72 134.533 141.72 135.52C141.72 136.507 141.227 137 140.24 137H124.04H107.84ZM154.16 139.96C153.2 139.96 152.72 139.493 152.72 138.56V122.28C151.173 126.093 149.6 129.12 148 131.36C147.6 131.893 147.253 132.133 146.96 132.08C146.693 132.027 146.4 131.693 146.08 131.08C145.867 130.68 145.773 130.36 145.8 130.12C145.8 129.853 145.933 129.56 146.2 129.24C147.32 127.8 148.44 126.013 149.56 123.88C150.68 121.747 151.6 119.627 152.32 117.52H147.64C146.707 117.52 146.24 117.053 146.24 116.12C146.24 115.187 146.707 114.72 147.64 114.72H149.48H152.72V108.64C151.307 108.933 149.747 109.213 148.04 109.48C147.293 109.587 146.787 109.293 146.52 108.6C146.2 107.747 146.533 107.24 147.52 107.08C151.653 106.36 155.08 105.493 157.8 104.48C158.147 104.32 158.453 104.293 158.72 104.4C158.933 104.48 159.187 104.68 159.48 105C160.307 105.907 160.187 106.56 159.12 106.96C158.293 107.28 157.107 107.627 155.56 108V114.72H159.12C160.053 114.72 160.52 115.187 160.52 116.12C160.52 117.053 160.053 117.52 159.12 117.52H155.56V119.96C156.653 120.893 158.253 122.507 160.36 124.8C160.627 125.093 160.747 125.36 160.72 125.6C160.693 125.76 160.533 126.027 160.24 126.4C159.84 126.907 159.507 127.187 159.24 127.24C158.973 127.267 158.68 127.027 158.36 126.52C157.32 125.08 156.387 123.853 155.56 122.84V138.56C155.56 139.493 155.093 139.96 154.16 139.96ZM160.8 139.04C159.92 139.04 159.48 138.6 159.48 137.72C159.48 136.84 159.92 136.4 160.8 136.4H169.36V131.04H163C162.147 131.04 161.72 130.613 161.72 129.76C161.72 128.907 162.147 128.48 163 128.48H169.36V123.72C166.32 123.987 164.093 124.16 162.68 124.24C161.96 124.267 161.493 123.947 161.28 123.28C161.013 122.427 161.387 121.973 162.4 121.92C169.04 121.493 174.16 120.813 177.76 119.88C178.08 119.8 178.347 119.813 178.56 119.92C178.72 120 178.933 120.187 179.2 120.48C179.627 120.987 179.827 121.373 179.8 121.64C179.773 121.907 179.453 122.12 178.84 122.28C177.107 122.68 174.92 123.053 172.28 123.4V128.48H179C179.853 128.48 180.28 128.907 180.28 129.76C180.28 130.613 179.853 131.04 179 131.04H172.28V136.4H180.56C181.44 136.4 181.88 136.84 181.88 137.72C181.88 138.6 181.44 139.04 180.56 139.04H170.68H160.8ZM164.4 118.16C163.707 118.16 163.147 117.947 162.72 117.52C162.293 117.093 162.08 116.533 162.08 115.84V107.88C162.08 107.187 162.293 106.627 162.72 106.2C163.147 105.773 163.707 105.56 164.4 105.56H170.92H177.48C178.173 105.56 178.733 105.773 179.16 106.2C179.587 106.627 179.8 107.187 179.8 107.88V115.84C179.8 116.533 179.587 117.093 179.16 117.52C178.733 117.947 178.173 118.16 177.48 118.16H164.4ZM165.72 115.6H170.92H176.12C176.68 115.6 176.96 115.32 176.96 114.76V108.96C176.96 108.4 176.68 108.12 176.12 108.12H165.72C165.16 108.12 164.88 108.4 164.88 108.96V114.76C164.88 115.32 165.16 115.6 165.72 115.6ZM211.36 140C210.427 140 209.96 139.547 209.96 138.64V115.96H205.92C205.36 115.96 205.08 116.24 205.08 116.8V132.72C205.08 133.627 204.627 134.08 203.72 134.08C202.813 134.08 202.36 133.627 202.36 132.72V115.56C202.36 114.867 202.573 114.307 203 113.88C203.427 113.453 203.987 113.24 204.68 113.24H209.96V108.32H202.24C201.36 108.32 200.92 107.867 200.92 106.96C200.92 106.08 201.36 105.64 202.24 105.64H211.4H220.56C221.44 105.64 221.88 106.08 221.88 106.96C221.88 107.867 221.44 108.32 220.56 108.32H212.72V113.24H218.4C219.093 113.24 219.653 113.453 220.08 113.88C220.507 114.307 220.72 114.867 220.72 115.56V130.96C220.72 132.32 220.333 133.187 219.56 133.56C219 133.827 218.08 133.987 216.8 134.04C215.707 134.04 215.053 133.68 214.84 132.96C214.68 132.427 214.773 132.04 215.12 131.8C215.413 131.56 215.88 131.453 216.52 131.48C216.84 131.48 217.147 131.48 217.44 131.48C217.787 131.48 217.96 131.293 217.96 130.92V116.8C217.96 116.24 217.68 115.96 217.12 115.96H212.72V138.64C212.72 139.547 212.267 140 211.36 140ZM189.8 136.16C189.107 136.16 188.547 135.947 188.12 135.52C187.693 135.093 187.48 134.533 187.48 133.84V111.84C187.48 111.147 187.693 110.587 188.12 110.16C188.547 109.733 189.107 109.52 189.8 109.52H190.8C191.36 107.973 191.827 106.44 192.2 104.92C192.413 103.987 193.013 103.6 194 103.76C195.147 103.92 195.493 104.56 195.04 105.68C194.747 106.48 194.307 107.613 193.72 109.08C193.613 109.267 193.547 109.413 193.52 109.52H197C197.693 109.52 198.253 109.733 198.68 110.16C199.107 110.587 199.32 111.147 199.32 111.84V118.16C199.32 118.853 199.107 119.413 198.68 119.84C198.253 120.267 197.693 120.48 197 120.48H190.16V124.2H197.4C198.093 124.2 198.653 124.413 199.08 124.84C199.507 125.267 199.72 125.827 199.72 126.52V133.84C199.72 134.533 199.507 135.093 199.08 135.52C198.653 135.947 198.093 136.16 197.4 136.16H194.92H189.8ZM191 133.6H193.6H196.24C196.8 133.6 197.08 133.32 197.08 132.76V127.6C197.08 127.04 196.8 126.76 196.24 126.76H190.16V132.76C190.16 133.32 190.44 133.6 191 133.6ZM190.16 117.96H193.44H195.88C196.44 117.96 196.72 117.68 196.72 117.12V112.92C196.72 112.36 196.44 112.08 195.88 112.08H191C190.44 112.08 190.16 112.36 190.16 112.92V117.96Z" fill="#2D2D2D"/>
<rect x="1" y="93" width="246" height="58" rx="29" stroke="black" stroke-width="2"/>
<path d="M760.379 72.1888C784.859 75.1987 807.463 74.6554 824.23 71.318C832.608 69.6504 839.587 67.2741 844.621 64.2529C849.642 61.2399 852.885 57.4845 853.43 53.0187C853.976 48.553 851.733 44.1231 847.586 39.9828C843.427 35.8315 837.228 31.8349 829.499 28.1869C814.031 20.8861 792.227 14.883 767.747 11.8731C743.267 8.86326 720.663 9.40649 703.896 12.7439C695.518 14.4116 688.539 16.7879 683.505 19.809C678.484 22.822 675.241 26.5775 674.696 31.0432C674.15 35.5089 676.393 39.9388 680.54 44.0791C684.699 48.2305 690.898 52.227 698.627 55.875C714.095 63.1758 735.899 69.179 760.379 72.1888Z" stroke="black" stroke-width="2"/>
<path d="M756.816 105.995C781.296 109.005 803.9 108.462 820.667 105.124C829.045 103.457 836.024 101.08 841.058 98.0591C846.079 95.046 849.322 91.2906 849.867 86.8249C850.413 82.3591 848.17 77.9292 844.023 73.789C839.864 69.6376 833.665 65.641 825.936 61.993C810.468 54.6922 788.664 48.6891 764.184 45.6793C739.704 42.6694 717.1 43.2126 700.333 46.5501C691.955 48.2177 684.976 50.594 679.942 53.6152C674.921 56.6282 671.678 60.3836 671.133 64.8493C670.587 69.3151 672.83 73.745 676.977 77.8852C681.136 82.0366 687.335 86.0332 695.064 89.6812C710.532 96.982 732.336 102.985 756.816 105.995Z" stroke="black" stroke-width="2"/>
<path d="M753.254 141.127C777.734 144.137 800.337 143.593 817.105 140.256C825.483 138.588 832.461 136.212 837.495 133.191C842.516 130.178 845.759 126.422 846.305 121.957C846.85 117.491 844.607 113.061 840.46 108.921C836.302 104.769 830.102 100.773 822.373 97.1249C806.905 89.8241 785.102 83.821 760.621 80.8111C736.141 77.8012 713.538 78.3445 696.77 81.6819C688.392 83.3495 681.414 85.7259 676.38 88.747C671.359 91.76 668.116 95.5154 667.57 99.9812C667.025 104.447 669.268 108.877 673.415 113.017C677.573 117.168 683.773 121.165 691.502 124.813C706.97 132.114 728.773 138.117 753.254 141.127Z" stroke="black" stroke-width="2"/>
<rect x="375" y="3" width="207" height="58" rx="29" fill="white"/>
<path d="M412.4 47.52C409.173 47.52 406.68 46.5867 404.92 44.72C402.893 42.6133 401.88 39.3333 401.88 34.88V19.52C401.88 18.2933 402.507 17.68 403.76 17.68C404.987 17.68 405.6 18.2933 405.6 19.52V35C405.6 41.1867 407.867 44.28 412.4 44.28C417.067 44.28 419.4 41.1867 419.4 35V26.36V19.44C419.4 18.2667 420 17.68 421.2 17.68C422.373 17.68 422.96 18.2667 422.96 19.44V34.88C422.96 43.3067 419.44 47.52 412.4 47.52ZM432.708 47C431.455 47 430.828 46.3867 430.828 45.16V19.52C430.828 18.2933 431.455 17.68 432.708 17.68C433.935 17.68 434.548 18.2933 434.548 19.52V32.36V45.16C434.548 46.3867 433.935 47 432.708 47ZM457.107 49.6C456.174 49.8933 455.48 49.68 455.027 48.96C454.414 47.9467 454.747 47.2533 456.027 46.88C458.747 45.9733 461.227 44.6933 463.467 43.04C461.44 40.9333 459.787 38.48 458.507 35.68C458.107 34.8 458.374 34.2133 459.307 33.92C460.134 33.68 460.72 33.9467 461.067 34.72C462.187 37.1467 463.707 39.32 465.627 41.24C467.92 39.08 469.654 36.48 470.827 33.44H457.227C456.32 33.44 455.867 32.9867 455.867 32.08C455.867 31.1733 456.32 30.72 457.227 30.72H463.987H471.907C472.734 30.72 473.307 30.9733 473.627 31.48C473.947 31.9867 473.96 32.72 473.667 33.68C472.414 37.3867 470.48 40.5467 467.867 43.16C469.947 44.7333 472.267 45.96 474.827 46.84C476.24 47.2667 476.56 47.9867 475.787 49C475.307 49.6667 474.614 49.8533 473.707 49.56C470.667 48.4667 467.974 46.9733 465.627 45.08C463.254 46.9467 460.414 48.4533 457.107 49.6ZM444.507 47.76C443.814 47.76 443.254 47.5467 442.827 47.12C442.4 46.6933 442.187 46.1333 442.187 45.44V38.52C442.187 37.8267 442.4 37.2667 442.827 36.84C443.254 36.4133 443.814 36.2 444.507 36.2H448.067H451.627C452.32 36.2 452.88 36.4133 453.307 36.84C453.734 37.2667 453.947 37.8267 453.947 38.52V45.44C453.947 46.1333 453.734 46.6933 453.307 47.12C452.88 47.5467 452.32 47.76 451.627 47.76H444.507ZM445.587 45.36H448.067H450.547C451.107 45.36 451.387 45.08 451.387 44.52V39.48C451.387 38.92 451.107 38.64 450.547 38.64H445.587C445.027 38.64 444.747 38.92 444.747 39.48V44.52C444.747 45.08 445.027 45.36 445.587 45.36ZM443.467 33.24C442.667 33.24 442.267 32.84 442.267 32.04C442.267 31.24 442.667 30.84 443.467 30.84H452.787C453.587 30.84 453.987 31.24 453.987 32.04C453.987 32.84 453.587 33.24 452.787 33.24H448.107H443.467ZM457.507 29.08C456.6 29.7467 455.854 29.8 455.267 29.24C454.84 28.8667 454.707 28.4267 454.867 27.92C455 27.4933 455.334 27.0667 455.867 26.64C457.574 24.9067 458.427 22.56 458.427 19.6V17.08C458.427 16.3867 458.627 15.84 459.027 15.44C459.454 15.0133 460.014 14.8 460.707 14.8H464.587H468.467C469.16 14.8 469.72 15.0133 470.147 15.44C470.574 15.8667 470.787 16.4267 470.787 17.12V24.56C470.787 24.9867 470.827 25.2667 470.907 25.4C471.014 25.5333 471.227 25.6 471.547 25.6H473.507C473.907 25.6 474.16 25.24 474.267 24.52C474.32 23.72 474.467 23.0667 474.707 22.56C475.054 21.8933 475.48 21.68 475.987 21.92C476.574 22.1867 476.827 23.04 476.747 24.48C476.56 25.8933 476.254 26.8667 475.827 27.4C475.427 27.9067 474.774 28.16 473.867 28.16H471.147C469.92 28.16 469.094 27.92 468.667 27.44C468.24 26.9333 468.027 25.9733 468.027 24.56V18.28C468.027 17.72 467.747 17.44 467.187 17.44H462.067C461.507 17.44 461.227 17.72 461.227 18.28V19.64C461.227 23.72 459.987 26.8667 457.507 29.08ZM443.427 27.92C442.654 27.92 442.267 27.52 442.267 26.72C442.267 25.9467 442.654 25.56 443.427 25.56H452.827C453.6 25.56 453.987 25.9467 453.987 26.72C453.987 27.52 453.6 27.92 452.827 27.92H448.107H443.427ZM441.627 22.6C440.827 22.6 440.427 22.1867 440.427 21.36C440.427 20.56 440.827 20.16 441.627 20.16H447.867H454.147C454.947 20.16 455.347 20.56 455.347 21.36C455.347 22.1867 454.947 22.6 454.147 22.6H441.627ZM443.667 17.32C442.867 17.32 442.467 16.92 442.467 16.12C442.467 15.32 442.867 14.92 443.667 14.92H448.147H452.667C453.467 14.92 453.867 15.32 453.867 16.12C453.867 16.92 453.467 17.32 452.667 17.32H443.667ZM506.707 50.04C505.72 50.04 505.227 49.5467 505.227 48.56V30.04H497.427C496.467 30.04 495.987 29.5467 495.987 28.56C495.987 27.6 496.467 27.12 497.427 27.12H500.587H505.227V15.12C505.227 14.1333 505.72 13.64 506.707 13.64C507.694 13.64 508.187 14.1333 508.187 15.12V27.12H515.587C516.547 27.12 517.027 27.6 517.027 28.56C517.027 29.5467 516.547 30.04 515.587 30.04H508.187V48.56C508.187 49.5467 507.694 50.04 506.707 50.04ZM484.547 47.76C483.854 47.76 483.294 47.5467 482.867 47.12C482.44 46.6933 482.227 46.1333 482.227 45.44V38.52C482.227 37.8267 482.44 37.2667 482.867 36.84C483.294 36.4133 483.854 36.2 484.547 36.2H488.307H492.107C492.8 36.2 493.36 36.4133 493.787 36.84C494.214 37.2667 494.427 37.8267 494.427 38.52V45.44C494.427 46.1333 494.214 46.6933 493.787 47.12C493.36 47.5467 492.8 47.76 492.107 47.76H484.547ZM485.667 45.36H488.307H490.947C491.507 45.36 491.787 45.08 491.787 44.52V39.48C491.787 38.92 491.507 38.64 490.947 38.64H485.667C485.107 38.64 484.827 38.92 484.827 39.48V44.52C484.827 45.08 485.107 45.36 485.667 45.36ZM483.467 33.24C482.667 33.24 482.267 32.84 482.267 32.04C482.267 31.24 482.667 30.84 483.467 30.84H493.347C494.147 30.84 494.547 31.24 494.547 32.04C494.547 32.84 494.147 33.24 493.347 33.24H488.387H483.467ZM483.427 27.92C482.654 27.92 482.267 27.52 482.267 26.72C482.267 25.9467 482.654 25.56 483.427 25.56H493.387C494.16 25.56 494.547 25.9467 494.547 26.72C494.547 27.52 494.16 27.92 493.387 27.92H488.387H483.427ZM481.627 22.6C480.827 22.6 480.427 22.1867 480.427 21.36C480.427 20.56 480.827 20.16 481.627 20.16H488.227H494.827C495.627 20.16 496.027 20.56 496.027 21.36C496.027 22.1867 495.627 22.6 494.827 22.6H481.627ZM483.667 17.32C482.867 17.32 482.467 16.92 482.467 16.12C482.467 15.32 482.867 14.92 483.667 14.92H488.507H493.347C494.147 14.92 494.547 15.32 494.547 16.12C494.547 16.92 494.147 17.32 493.347 17.32H483.667ZM545.907 50C544.974 50 544.507 49.5467 544.507 48.64V25.96H540.467C539.907 25.96 539.627 26.24 539.627 26.8V42.72C539.627 43.6267 539.174 44.08 538.267 44.08C537.36 44.08 536.907 43.6267 536.907 42.72V25.56C536.907 24.8667 537.12 24.3067 537.547 23.88C537.974 23.4533 538.534 23.24 539.227 23.24H544.507V18.32H536.787C535.907 18.32 535.467 17.8667 535.467 16.96C535.467 16.08 535.907 15.64 536.787 15.64H545.947H555.107C555.987 15.64 556.427 16.08 556.427 16.96C556.427 17.8667 555.987 18.32 555.107 18.32H547.267V23.24H552.947C553.64 23.24 554.2 23.4533 554.627 23.88C555.054 24.3067 555.267 24.8667 555.267 25.56V40.96C555.267 42.32 554.88 43.1867 554.107 43.56C553.547 43.8267 552.627 43.9867 551.347 44.04C550.254 44.04 549.6 43.68 549.387 42.96C549.227 42.4267 549.32 42.04 549.667 41.8C549.96 41.56 550.427 41.4533 551.067 41.48C551.387 41.48 551.694 41.48 551.987 41.48C552.334 41.48 552.507 41.2933 552.507 40.92V26.8C552.507 26.24 552.227 25.96 551.667 25.96H547.267V48.64C547.267 49.5467 546.814 50 545.907 50ZM524.347 46.16C523.654 46.16 523.094 45.9467 522.667 45.52C522.24 45.0933 522.027 44.5333 522.027 43.84V21.84C522.027 21.1467 522.24 20.5867 522.667 20.16C523.094 19.7333 523.654 19.52 524.347 19.52H525.347C525.907 17.9733 526.374 16.44 526.747 14.92C526.96 13.9867 527.56 13.6 528.547 13.76C529.694 13.92 530.04 14.56 529.587 15.68C529.294 16.48 528.854 17.6133 528.267 19.08C528.16 19.2667 528.094 19.4133 528.067 19.52H531.547C532.24 19.52 532.8 19.7333 533.227 20.16C533.654 20.5867 533.867 21.1467 533.867 21.84V28.16C533.867 28.8533 533.654 29.4133 533.227 29.84C532.8 30.2667 532.24 30.48 531.547 30.48H524.707V34.2H531.947C532.64 34.2 533.2 34.4133 533.627 34.84C534.054 35.2667 534.267 35.8267 534.267 36.52V43.84C534.267 44.5333 534.054 45.0933 533.627 45.52C533.2 45.9467 532.64 46.16 531.947 46.16H529.467H524.347ZM525.547 43.6H528.147H530.787C531.347 43.6 531.627 43.32 531.627 42.76V37.6C531.627 37.04 531.347 36.76 530.787 36.76H524.707V42.76C524.707 43.32 524.987 43.6 525.547 43.6ZM524.707 27.96H527.987H530.427C530.987 27.96 531.267 27.68 531.267 27.12V22.92C531.267 22.36 530.987 22.08 530.427 22.08H525.547C524.987 22.08 524.707 22.36 524.707 22.92V27.96Z" fill="#2D2D2D"/>
<rect x="375" y="3" width="207" height="58" rx="29" stroke="black" stroke-width="2"/>
<path d="M979.735 70.1109C984.263 68.9131 988.253 66.2205 991.059 62.4699C993.864 58.7194 995.32 54.1309 995.19 49.4491C995.06 44.7672 993.352 40.2666 990.343 36.6774C987.334 33.0883 983.2 30.6211 978.613 29.6763L942.191 22.1659C937.605 21.2189 932.832 21.8495 928.649 23.9555C924.465 26.0615 921.116 29.5193 919.145 33.7678C917.173 38.0163 916.695 42.8063 917.788 47.3607C918.881 51.9151 921.48 55.9667 925.165 58.858C921.429 59.8453 918.043 61.855 915.388 64.6611C912.732 67.4673 910.911 70.9587 910.131 74.7428C909.351 78.5269 909.642 82.4536 910.971 86.0815C912.3 89.7094 914.615 92.8946 917.655 95.279C914.077 96.227 910.817 98.1135 908.213 100.744C905.608 103.374 903.753 106.652 902.84 110.239C901.927 113.826 901.989 117.591 903.019 121.146C904.049 124.702 906.01 127.917 908.699 130.46C911.389 133.004 914.709 134.782 918.316 135.613C921.923 136.443 925.686 136.295 929.217 135.183C932.747 134.071 935.917 132.037 938.397 129.29C940.878 126.543 942.58 123.183 943.327 119.558L948.266 95.6067C949.641 98.4085 951.63 100.864 954.084 102.792C956.539 104.72 959.397 106.069 962.445 106.741C965.493 107.412 968.653 107.388 971.691 106.67C974.728 105.952 977.565 104.559 979.99 102.594C982.415 100.63 984.366 98.1437 985.698 95.3212C987.031 92.4988 987.71 89.4123 987.685 86.2913C987.661 83.1703 986.933 80.0949 985.557 77.2937C984.181 74.4924 982.191 72.0374 979.735 70.1109ZM990.484 53.3428C989.601 57.6 987.066 61.3335 983.435 63.7248C979.804 66.1161 975.373 66.97 971.113 66.0994L971.102 66.097L971.082 66.0933L955.034 62.7836L961.661 30.6477L977.729 33.9612C981.988 34.8445 985.723 37.3811 988.114 41.0146C990.505 44.6481 991.357 49.0817 990.484 53.3428ZM957.748 67.8104C956.189 68.5788 954.731 69.5382 953.409 70.6665L954.151 67.0685L957.748 67.8104ZM921.926 39.2055C922.81 34.9464 925.346 31.2117 928.98 28.8205C932.613 26.4294 937.047 25.5771 941.308 26.4508L957.376 29.7642L950.749 61.9L934.681 58.5866L934.671 58.5847C930.414 57.6991 926.682 55.1619 924.293 51.5292C921.904 47.8965 921.053 43.4648 921.926 39.2055ZM919.66 131.428C917.549 130.995 915.544 130.149 913.759 128.94C911.974 127.731 910.445 126.182 909.26 124.382C908.074 122.582 907.255 120.566 906.849 118.449C906.442 116.332 906.457 114.156 906.893 112.044C907.328 109.933 908.175 107.929 909.386 106.145C910.596 104.361 912.146 102.834 913.947 101.65C915.749 100.465 917.765 99.6476 919.883 99.2431C922 98.8387 924.176 98.8556 926.287 99.2926L942.355 102.606L939.042 118.674C938.159 122.933 935.622 126.668 931.989 129.059C928.355 131.45 923.921 132.302 919.66 131.428ZM943.239 98.3207L927.171 95.0078C922.911 94.1286 919.174 91.5936 916.783 87.9602C914.391 84.3268 913.541 79.8924 914.418 75.632C915.295 71.3715 917.828 67.6338 921.46 65.2406C925.092 62.8473 929.526 61.9945 933.787 62.8696L933.797 62.872L949.866 66.1849L943.239 98.3207ZM963.592 102.518C959.333 101.639 955.598 99.1044 953.207 95.4724C950.816 91.8404 949.965 87.4076 950.84 83.1483C951.716 78.8889 954.246 75.1513 957.876 72.7568C961.506 70.3623 965.938 69.5067 970.198 70.3781L970.219 70.3824L970.229 70.3842C974.487 71.2678 978.219 73.8056 980.607 77.44C982.995 81.0743 983.842 85.5079 982.962 89.7665C982.083 94.0251 979.548 97.7603 975.916 100.151C972.284 102.542 967.851 103.394 963.592 102.518Z" fill="black"/>
<rect x="309" y="182" width="721" height="70" rx="35" fill="white"/>
<path d="M341.854 235C341.054 235 340.414 234.76 339.934 234.28C339.454 233.8 339.214 233.16 339.214 232.36V202.6C339.214 201.768 339.47 201.096 339.982 200.584C340.494 200.072 341.166 199.816 341.998 199.816H349.678C357.742 199.816 361.774 202.68 361.774 208.408C361.774 210.2 361.326 211.784 360.43 213.16C359.502 214.568 358.222 215.528 356.59 216.04V216.28C358.798 216.696 360.526 217.592 361.774 218.968C363.118 220.472 363.79 222.376 363.79 224.68C363.79 228.04 362.558 230.616 360.094 232.408C357.726 234.136 354.51 235 350.446 235H344.83H341.854ZM343.678 231.448H349.822C356.222 231.448 359.422 229.144 359.422 224.536C359.422 220.312 356.222 218.2 349.822 218.2H346.75H343.678V231.448ZM343.678 214.792H348.91C354.574 214.792 357.406 212.856 357.406 208.984C357.406 206.968 356.702 205.512 355.294 204.616C353.982 203.752 351.918 203.32 349.102 203.32H346.366H343.678V214.792ZM377.961 235.624C372.681 235.624 370.041 232.232 370.041 225.448V211.096C370.041 209.656 370.777 208.936 372.249 208.936C373.689 208.936 374.409 209.656 374.409 211.096V224.92C374.409 227.352 374.793 229.112 375.561 230.2C376.329 231.288 377.577 231.832 379.305 231.832C380.617 231.832 381.817 231.48 382.905 230.776C383.929 230.136 385.081 229.016 386.361 227.416V211.096C386.361 209.656 387.097 208.936 388.569 208.936C390.009 208.936 390.729 209.656 390.729 211.096V221.992V233.176C390.729 234.392 390.105 235 388.857 235C387.673 235 387.033 234.424 386.937 233.272L386.745 230.92H386.601C385.289 232.456 383.993 233.592 382.713 234.328C381.241 235.192 379.657 235.624 377.961 235.624ZM401.741 235C400.269 235 399.533 234.28 399.533 232.84V211.096C399.533 209.656 400.269 208.936 401.741 208.936C403.181 208.936 403.901 209.656 403.901 211.096V221.992V232.84C403.901 234.28 403.181 235 401.741 235ZM401.741 203.56C400.877 203.56 400.157 203.288 399.581 202.744C399.005 202.2 398.717 201.528 398.717 200.728C398.717 199.864 398.989 199.176 399.533 198.664C400.109 198.152 400.845 197.896 401.741 197.896C402.637 197.896 403.357 198.152 403.901 198.664C404.477 199.176 404.765 199.864 404.765 200.728C404.765 201.56 404.477 202.232 403.901 202.744C403.357 203.288 402.637 203.56 401.741 203.56ZM417.36 235.624C414.288 235.624 412.752 233.688 412.752 229.816V198.952C412.752 197.512 413.488 196.792 414.96 196.792C416.4 196.792 417.12 197.512 417.12 198.952V213.448V230.104C417.12 231.352 417.536 231.976 418.368 231.976C418.4 231.976 418.432 231.976 418.464 231.976C418.72 231.944 418.944 232.056 419.136 232.312C419.328 232.536 419.456 232.792 419.52 233.08C419.648 233.656 419.648 234.152 419.52 234.568C419.392 235.112 419.104 235.432 418.656 235.528C418.144 235.592 417.712 235.624 417.36 235.624ZM435.319 235.624C432.023 235.624 429.415 234.44 427.495 232.072C425.543 229.64 424.567 226.28 424.567 221.992C424.567 217.896 425.703 214.552 427.975 211.96C430.119 209.496 432.743 208.264 435.847 208.264C437.287 208.264 438.615 208.536 439.831 209.08C440.791 209.528 441.911 210.28 443.191 211.336L442.951 206.824V198.952C442.951 197.512 443.687 196.792 445.159 196.792C446.599 196.792 447.319 197.512 447.319 198.952V215.896V233.224C447.319 234.408 446.695 235 445.447 235C444.327 235 443.687 234.472 443.527 233.416L443.335 231.928H443.239C440.711 234.392 438.071 235.624 435.319 235.624ZM436.279 231.976C438.583 231.976 440.807 230.776 442.951 228.376V221.56V214.696C440.903 212.872 438.791 211.96 436.615 211.96C434.471 211.96 432.695 212.872 431.287 214.696C429.815 216.584 429.079 219 429.079 221.944C429.079 225.112 429.703 227.576 430.951 229.336C432.199 231.096 433.975 231.976 436.279 231.976ZM481.147 235.624C476.443 235.624 472.651 234.024 469.771 230.824C466.795 227.528 465.307 223.08 465.307 217.48C465.307 211.848 466.827 207.368 469.867 204.04C472.843 200.776 476.699 199.144 481.435 199.144C484.955 199.144 487.979 200.264 490.507 202.504C491.211 203.208 491.195 203.992 490.459 204.856C489.627 205.88 488.731 205.96 487.771 205.096C486.011 203.72 483.931 203.032 481.531 203.032C477.979 203.032 475.147 204.312 473.035 206.872C470.923 209.432 469.867 212.904 469.867 217.288C469.867 221.768 470.875 225.288 472.891 227.848C474.971 230.44 477.867 231.736 481.579 231.736C484.363 231.736 486.491 231.048 487.963 229.672V220.456H482.347C481.131 220.456 480.523 219.832 480.523 218.584C480.523 217.368 481.131 216.76 482.347 216.76H486.283H489.307C490.139 216.76 490.795 217.016 491.275 217.528C491.787 218.008 492.043 218.664 492.043 219.496V230.104C492.043 231.032 491.739 231.8 491.131 232.408C488.507 234.552 485.179 235.624 481.147 235.624ZM510.161 235.624C506.801 235.624 503.985 234.424 501.713 232.024C499.281 229.496 498.065 226.152 498.065 221.992C498.065 217.8 499.281 214.424 501.713 211.864C503.985 209.464 506.801 208.264 510.161 208.264C513.553 208.264 516.369 209.464 518.609 211.864C521.041 214.456 522.257 217.832 522.257 221.992C522.257 226.152 521.041 229.496 518.609 232.024C516.337 234.424 513.521 235.624 510.161 235.624ZM510.161 231.976C512.433 231.976 514.257 231.064 515.633 229.24C517.041 227.416 517.745 225 517.745 221.992C517.745 218.984 517.041 216.552 515.633 214.696C514.289 212.84 512.465 211.912 510.161 211.912C507.921 211.912 506.097 212.84 504.689 214.696C503.313 216.552 502.625 218.984 502.625 221.992C502.625 225 503.313 227.416 504.689 229.24C506.065 231.064 507.889 231.976 510.161 231.976ZM539.271 235.624C535.911 235.624 533.095 234.424 530.823 232.024C528.391 229.496 527.175 226.152 527.175 221.992C527.175 217.8 528.391 214.424 530.823 211.864C533.095 209.464 535.911 208.264 539.271 208.264C542.663 208.264 545.479 209.464 547.719 211.864C550.151 214.456 551.367 217.832 551.367 221.992C551.367 226.152 550.151 229.496 547.719 232.024C545.447 234.424 542.631 235.624 539.271 235.624ZM539.271 231.976C541.543 231.976 543.367 231.064 544.743 229.24C546.151 227.416 546.855 225 546.855 221.992C546.855 218.984 546.151 216.552 544.743 214.696C543.399 212.84 541.575 211.912 539.271 211.912C537.031 211.912 535.207 212.84 533.799 214.696C532.423 216.552 531.735 218.984 531.735 221.992C531.735 225 532.423 227.416 533.799 229.24C535.175 231.064 536.999 231.976 539.271 231.976ZM567.132 235.624C563.836 235.624 561.228 234.44 559.308 232.072C557.356 229.64 556.38 226.28 556.38 221.992C556.38 217.896 557.516 214.552 559.788 211.96C561.932 209.496 564.556 208.264 567.66 208.264C569.1 208.264 570.428 208.536 571.644 209.08C572.604 209.528 573.724 210.28 575.004 211.336L574.764 206.824V198.952C574.764 197.512 575.5 196.792 576.972 196.792C578.412 196.792 579.132 197.512 579.132 198.952V215.896V233.224C579.132 234.408 578.508 235 577.26 235C576.14 235 575.5 234.472 575.34 233.416L575.148 231.928H575.052C572.524 234.392 569.884 235.624 567.132 235.624ZM568.092 231.976C570.396 231.976 572.62 230.776 574.764 228.376V221.56V214.696C572.716 212.872 570.604 211.96 568.428 211.96C566.284 211.96 564.508 212.872 563.1 214.696C561.628 216.584 560.892 219 560.892 221.944C560.892 225.112 561.516 227.576 562.764 229.336C564.012 231.096 565.788 231.976 568.092 231.976ZM601.392 235C599.888 235 599.136 234.264 599.136 232.792V202.6C599.136 201.768 599.392 201.096 599.904 200.584C600.416 200.072 601.088 199.816 601.92 199.816H604.128H609.168C617.968 199.816 622.368 203.256 622.368 210.136C622.368 213.752 621.168 216.504 618.768 218.392C616.528 220.152 613.408 221.032 609.408 221.032H603.6V232.792C603.6 234.264 602.864 235 601.392 235ZM603.6 217.432H606.192H608.832C611.936 217.432 614.224 216.84 615.696 215.656C617.2 214.472 617.952 212.632 617.952 210.136C617.952 207.672 617.168 205.912 615.6 204.856C614.16 203.896 611.84 203.416 608.64 203.416H603.6V217.432ZM631.288 235C629.816 235 629.08 234.28 629.08 232.84V221.992V210.712C629.08 209.528 629.704 208.936 630.952 208.936C632.104 208.936 632.728 209.496 632.824 210.616L633.064 213.688H633.208C634.136 211.992 635.224 210.68 636.472 209.752C637.784 208.76 639.16 208.264 640.6 208.264C640.92 208.264 641.368 208.296 641.944 208.36C642.936 208.68 643.304 209.384 643.048 210.472C642.728 211.944 641.88 212.536 640.504 212.248C640.344 212.248 640.184 212.248 640.024 212.248C638.808 212.248 637.656 212.696 636.568 213.592C635.288 214.616 634.248 216.168 633.448 218.248V232.84C633.448 234.28 632.728 235 631.288 235ZM657.302 235.624C653.942 235.624 651.126 234.424 648.854 232.024C646.422 229.496 645.206 226.152 645.206 221.992C645.206 217.8 646.422 214.424 648.854 211.864C651.126 209.464 653.942 208.264 657.302 208.264C660.694 208.264 663.51 209.464 665.75 211.864C668.182 214.456 669.398 217.832 669.398 221.992C669.398 226.152 668.182 229.496 665.75 232.024C663.478 234.424 660.662 235.624 657.302 235.624ZM657.302 231.976C659.574 231.976 661.398 231.064 662.774 229.24C664.182 227.416 664.886 225 664.886 221.992C664.886 218.984 664.182 216.552 662.774 214.696C661.43 212.84 659.606 211.912 657.302 211.912C655.062 211.912 653.238 212.84 651.83 214.696C650.454 216.552 649.766 218.984 649.766 221.992C649.766 225 650.454 227.416 651.83 229.24C653.206 231.064 655.03 231.976 657.302 231.976ZM685.163 235.624C681.867 235.624 679.259 234.44 677.339 232.072C675.387 229.64 674.411 226.28 674.411 221.992C674.411 217.896 675.547 214.552 677.819 211.96C679.963 209.496 682.587 208.264 685.691 208.264C687.131 208.264 688.459 208.536 689.675 209.08C690.635 209.528 691.755 210.28 693.035 211.336L692.795 206.824V198.952C692.795 197.512 693.531 196.792 695.003 196.792C696.443 196.792 697.163 197.512 697.163 198.952V215.896V233.224C697.163 234.408 696.539 235 695.291 235C694.171 235 693.531 234.472 693.371 233.416L693.179 231.928H693.083C690.555 234.392 687.915 235.624 685.163 235.624ZM686.123 231.976C688.427 231.976 690.651 230.776 692.795 228.376V221.56V214.696C690.747 212.872 688.635 211.96 686.459 211.96C684.315 211.96 682.539 212.872 681.131 214.696C679.659 216.584 678.923 219 678.923 221.944C678.923 225.112 679.547 227.576 680.795 229.336C682.043 231.096 683.819 231.976 686.123 231.976ZM713.633 235.624C708.353 235.624 705.713 232.232 705.713 225.448V211.096C705.713 209.656 706.449 208.936 707.921 208.936C709.361 208.936 710.081 209.656 710.081 211.096V224.92C710.081 227.352 710.465 229.112 711.233 230.2C712.001 231.288 713.249 231.832 714.977 231.832C716.289 231.832 717.489 231.48 718.577 230.776C719.601 230.136 720.753 229.016 722.033 227.416V211.096C722.033 209.656 722.769 208.936 724.241 208.936C725.681 208.936 726.401 209.656 726.401 211.096V221.992V233.176C726.401 234.392 725.777 235 724.529 235C723.345 235 722.705 234.424 722.609 233.272L722.417 230.92H722.273C720.961 232.456 719.665 233.592 718.385 234.328C716.913 235.192 715.329 235.624 713.633 235.624ZM745.477 235.624C741.925 235.624 739.029 234.424 736.789 232.024C734.421 229.56 733.237 226.216 733.237 221.992C733.237 217.832 734.501 214.456 737.029 211.864C739.365 209.464 742.293 208.264 745.813 208.264C748.181 208.264 750.293 208.952 752.149 210.328C753.013 211.032 753.093 211.832 752.389 212.728C751.589 213.784 750.661 213.88 749.605 213.016C748.453 212.28 747.237 211.912 745.957 211.912C743.589 211.912 741.637 212.856 740.101 214.744C738.565 216.6 737.797 219.032 737.797 222.04C737.797 225.016 738.533 227.416 740.005 229.24C741.509 231.064 743.461 231.976 745.861 231.976C747.429 231.976 748.965 231.496 750.469 230.536C751.493 229.768 752.357 229.928 753.061 231.016C753.605 231.912 753.461 232.68 752.629 233.32C750.485 234.856 748.101 235.624 745.477 235.624ZM767.319 235.624C762.359 235.624 759.879 232.728 759.879 226.936V212.488H757.623C756.535 212.488 755.991 211.928 755.991 210.808C755.991 209.688 756.519 209.112 757.575 209.08L760.071 208.936L760.455 203.368C760.551 202.216 761.191 201.64 762.375 201.64C763.623 201.64 764.247 202.248 764.247 203.464V208.936H769.527C770.711 208.936 771.303 209.528 771.303 210.712C771.303 211.896 770.711 212.488 769.527 212.488H767.751H764.247V227.032C764.247 228.728 764.535 229.976 765.111 230.776C765.751 231.64 766.807 232.072 768.279 232.072C768.695 232.072 769.111 232.024 769.527 231.928C770.679 231.576 771.399 231.976 771.687 233.128C771.975 234.152 771.607 234.824 770.583 235.144C769.367 235.464 768.279 235.624 767.319 235.624ZM783.505 235.624C780.529 235.624 777.729 234.744 775.105 232.984C774.241 232.344 774.145 231.56 774.817 230.632C775.553 229.64 776.417 229.512 777.409 230.248C779.393 231.56 781.473 232.216 783.649 232.216C785.313 232.216 786.609 231.816 787.537 231.016C788.369 230.28 788.785 229.32 788.785 228.136C788.785 226.952 788.161 225.928 786.913 225.064C786.145 224.552 784.785 223.928 782.833 223.192C780.433 222.296 778.689 221.416 777.601 220.552C775.905 219.24 775.057 217.608 775.057 215.656C775.057 213.512 775.841 211.768 777.409 210.424C779.073 208.984 781.281 208.264 784.033 208.264C786.369 208.264 788.625 208.936 790.801 210.28C791.697 210.888 791.793 211.656 791.089 212.584C790.385 213.544 789.521 213.688 788.497 213.016C787.089 212.152 785.601 211.72 784.033 211.72C782.497 211.72 781.297 212.088 780.433 212.824C779.665 213.496 779.281 214.376 779.281 215.464C779.281 216.52 779.809 217.4 780.865 218.104C781.537 218.552 782.769 219.112 784.561 219.784C784.785 219.88 784.961 219.944 785.089 219.976L785.137 220.024C787.697 220.984 789.489 221.864 790.513 222.664C792.177 223.976 793.009 225.72 793.009 227.896C793.009 230.104 792.193 231.912 790.561 233.32C788.865 234.856 786.513 235.624 783.505 235.624ZM819.861 235C818.357 235 817.605 234.264 817.605 232.792V203.56H808.821C807.573 203.56 806.949 202.936 806.949 201.688C806.949 200.44 807.573 199.816 808.821 199.816H819.813H830.853C832.101 199.816 832.725 200.44 832.725 201.688C832.725 202.936 832.101 203.56 830.853 203.56H822.069V232.792C822.069 234.264 821.333 235 819.861 235ZM845.177 235.624C841.817 235.624 839.001 234.424 836.729 232.024C834.297 229.496 833.081 226.152 833.081 221.992C833.081 217.8 834.297 214.424 836.729 211.864C839.001 209.464 841.817 208.264 845.177 208.264C848.569 208.264 851.385 209.464 853.625 211.864C856.057 214.456 857.273 217.832 857.273 221.992C857.273 226.152 856.057 229.496 853.625 232.024C851.353 234.424 848.537 235.624 845.177 235.624ZM845.177 231.976C847.449 231.976 849.273 231.064 850.649 229.24C852.057 227.416 852.761 225 852.761 221.992C852.761 218.984 852.057 216.552 850.649 214.696C849.305 212.84 847.481 211.912 845.177 211.912C842.937 211.912 841.113 212.84 839.705 214.696C838.329 216.552 837.641 218.984 837.641 221.992C837.641 225 838.329 227.416 839.705 229.24C841.081 231.064 842.905 231.976 845.177 231.976ZM872.942 247C869.678 247 867.086 246.392 865.166 245.176C863.15 243.928 862.142 242.2 862.142 239.992C862.142 237.72 863.438 235.752 866.03 234.088V233.896C864.43 232.968 863.63 231.544 863.63 229.624C863.63 227.8 864.606 226.184 866.558 224.776V224.584C865.598 223.816 864.814 222.856 864.206 221.704C863.502 220.392 863.15 219.016 863.15 217.576C863.15 214.792 864.126 212.52 866.078 210.76C867.934 209.096 870.222 208.264 872.942 208.264C874.158 208.264 875.374 208.488 876.59 208.936H881.102H883.982C885.102 208.936 885.662 209.496 885.662 210.616C885.662 211.736 885.102 212.296 883.982 212.296H880.334C881.742 213.64 882.446 215.432 882.446 217.672C882.446 220.392 881.518 222.6 879.662 224.296C877.902 225.928 875.662 226.744 872.942 226.744C871.566 226.744 870.27 226.44 869.054 225.832C867.934 226.792 867.374 227.832 867.374 228.952C867.374 230.84 868.894 231.784 871.934 231.784H877.022C883.07 231.784 886.094 233.848 886.094 237.976C886.094 240.472 884.91 242.584 882.542 244.312C880.046 246.104 876.846 247 872.942 247ZM873.566 244.024C875.934 244.024 877.95 243.464 879.614 242.344C881.118 241.352 881.87 240.12 881.87 238.648C881.87 237.496 881.422 236.664 880.526 236.152C879.662 235.672 878.334 235.432 876.542 235.432H872.03C870.942 235.432 869.822 235.288 868.67 235C866.878 236.28 865.982 237.752 865.982 239.416C865.982 240.824 866.654 241.944 867.998 242.776C869.342 243.608 871.198 244.024 873.566 244.024ZM872.942 223.768C874.478 223.768 875.774 223.208 876.83 222.088C877.918 220.936 878.462 219.432 878.462 217.576C878.462 215.72 877.934 214.232 876.878 213.112C875.822 212.024 874.51 211.48 872.942 211.48C871.342 211.48 870.03 212.008 869.006 213.064C867.918 214.216 867.374 215.72 867.374 217.576C867.374 219.432 867.918 220.936 869.006 222.088C870.126 223.208 871.438 223.768 872.942 223.768ZM901.014 235.624C897.43 235.624 894.486 234.424 892.182 232.024C889.75 229.496 888.534 226.152 888.534 221.992C888.534 217.928 889.734 214.584 892.134 211.96C894.406 209.496 897.126 208.264 900.294 208.264C903.558 208.264 906.118 209.368 907.974 211.576C909.766 213.752 910.662 216.728 910.662 220.504C910.662 220.888 910.63 221.4 910.566 222.04C910.502 222.68 910.102 223 909.366 223H901.686H892.902C893.03 225.784 893.878 228.008 895.446 229.672C897.046 231.304 899.078 232.12 901.542 232.12C903.366 232.12 905.046 231.72 906.582 230.92C907.574 230.376 908.342 230.584 908.886 231.544C909.366 232.472 909.206 233.176 908.406 233.656C906.102 234.968 903.638 235.624 901.014 235.624ZM892.854 219.88H899.814H906.822C906.822 217.256 906.246 215.256 905.094 213.88C903.974 212.472 902.39 211.768 900.342 211.768C898.422 211.768 896.774 212.472 895.398 213.88C893.958 215.384 893.11 217.384 892.854 219.88ZM924.772 235.624C919.812 235.624 917.332 232.728 917.332 226.936V212.488H915.076C913.988 212.488 913.444 211.928 913.444 210.808C913.444 209.688 913.972 209.112 915.028 209.08L917.524 208.936L917.908 203.368C918.004 202.216 918.644 201.64 919.828 201.64C921.076 201.64 921.7 202.248 921.7 203.464V208.936H926.98C928.164 208.936 928.756 209.528 928.756 210.712C928.756 211.896 928.164 212.488 926.98 212.488H925.204H921.7V227.032C921.7 228.728 921.988 229.976 922.564 230.776C923.204 231.64 924.26 232.072 925.732 232.072C926.148 232.072 926.564 232.024 926.98 231.928C928.132 231.576 928.852 231.976 929.14 233.128C929.428 234.152 929.06 234.824 928.036 235.144C926.82 235.464 925.732 235.624 924.772 235.624ZM936.866 235C935.394 235 934.658 234.28 934.658 232.84V215.896V198.952C934.658 197.512 935.394 196.792 936.866 196.792C938.306 196.792 939.026 197.512 939.026 198.952V207.256L938.882 212.632C941.794 209.72 944.674 208.264 947.522 208.264C952.834 208.264 955.49 211.672 955.49 218.488V232.84C955.49 234.28 954.77 235 953.33 235C951.858 235 951.122 234.28 951.122 232.84V219.064C951.122 216.632 950.722 214.872 949.922 213.784C949.154 212.664 947.906 212.104 946.178 212.104C944.898 212.104 943.698 212.44 942.578 213.112C941.65 213.656 940.466 214.648 939.026 216.088V232.84C939.026 234.28 938.306 235 936.866 235ZM974.326 235.624C970.742 235.624 967.798 234.424 965.494 232.024C963.062 229.496 961.846 226.152 961.846 221.992C961.846 217.928 963.046 214.584 965.446 211.96C967.718 209.496 970.438 208.264 973.606 208.264C976.87 208.264 979.43 209.368 981.286 211.576C983.078 213.752 983.974 216.728 983.974 220.504C983.974 220.888 983.942 221.4 983.878 222.04C983.814 222.68 983.414 223 982.678 223H974.998H966.214C966.342 225.784 967.19 228.008 968.758 229.672C970.358 231.304 972.39 232.12 974.854 232.12C976.678 232.12 978.358 231.72 979.894 230.92C980.886 230.376 981.654 230.584 982.198 231.544C982.678 232.472 982.518 233.176 981.718 233.656C979.414 234.968 976.95 235.624 974.326 235.624ZM966.166 219.88H973.126H980.134C980.134 217.256 979.558 215.256 978.406 213.88C977.286 212.472 975.702 211.768 973.654 211.768C971.734 211.768 970.086 212.472 968.71 213.88C967.27 215.384 966.422 217.384 966.166 219.88ZM992.601 235C991.129 235 990.393 234.28 990.393 232.84V221.992V210.712C990.393 209.528 991.017 208.936 992.265 208.936C993.417 208.936 994.041 209.496 994.137 210.616L994.377 213.688H994.521C995.449 211.992 996.537 210.68 997.785 209.752C999.097 208.76 1000.47 208.264 1001.91 208.264C1002.23 208.264 1002.68 208.296 1003.26 208.36C1004.25 208.68 1004.62 209.384 1004.36 210.472C1004.04 211.944 1003.19 212.536 1001.82 212.248C1001.66 212.248 1001.5 212.248 1001.34 212.248C1000.12 212.248 998.969 212.696 997.881 213.592C996.601 214.616 995.561 216.168 994.761 218.248V232.84C994.761 234.28 994.041 235 992.601 235Z" fill="black"/>
<rect x="309" y="182" width="721" height="70" rx="35" stroke="black" stroke-width="2"/>
</svg>
