<svg width="440" height="132" viewBox="0 0 440 132" fill="none" xmlns="http://www.w3.org/2000/svg">
<path d="M110.206 1.81722C111.625 0.362207 114.041 0.686667 114.997 2.4609L131.424 32.9182C131.991 33.9697 133.134 34.5778 134.331 34.4643L181.939 29.9497C184.62 29.6955 186.231 32.8139 184.478 34.8655L165.974 56.5198C164.652 58.0668 165.205 60.4369 167.071 61.2174L204.885 77.0358C207.709 78.2173 207.113 82.3799 204.063 82.7723L163.232 88.0258C161.217 88.285 160.018 90.4196 160.855 92.2567L172.575 117.971C173.685 120.407 171.259 122.984 168.751 122.032L124.209 105.138C123.089 104.714 121.818 104.998 120.977 105.86L96.611 130.837C95.1916 132.292 92.7763 131.968 91.8194 130.194L75.3928 99.7362C74.8257 98.6848 73.6824 98.0767 72.4858 98.1902L24.8774 102.705C22.1963 102.959 20.5861 99.8405 22.3392 97.789L40.8432 76.1347C42.1652 74.5876 41.6114 72.2176 39.7456 71.437L1.93214 55.6187C-0.892366 54.4371 -0.296179 50.2745 2.75375 49.8821L43.5852 44.6287C45.5999 44.3695 46.7989 42.2349 45.9616 40.3978L34.2419 14.6833C33.1315 12.2471 35.5573 9.67077 38.0657 10.6222L82.6079 27.516C83.7275 27.9406 84.9985 27.6569 85.8397 26.7946L110.206 1.81722Z" fill="#D2C67A"/>
<path d="M105.164 61H93.568L94.14 40.252C93.204 43.268 92.06 46.544 90.708 50.08C89.356 53.616 87.8827 57.256 86.288 61H75.472L74.484 24.6H84.832L83.636 51.172C84.2947 49.3347 84.936 47.428 85.56 45.452C86.2187 43.4413 86.8253 41.396 87.38 39.316C87.9693 37.236 88.524 35.156 89.044 33.076C89.5987 30.9613 90.1013 28.9333 90.552 26.992H101.472L100.432 51.328C101.299 48.7627 102.079 46.4747 102.772 44.464C103.465 42.4533 104.072 40.6333 104.592 39.004C105.112 37.34 105.545 35.7973 105.892 34.376C106.273 32.92 106.568 31.4987 106.776 30.112C106.984 28.6907 107.14 27.2347 107.244 25.744C107.244 25.536 107.244 25.3453 107.244 25.172C107.244 24.964 107.244 24.7733 107.244 24.6H117.072C117.107 24.7387 117.124 24.912 117.124 25.12C117.124 25.2933 117.124 25.4667 117.124 25.64C117.089 26.7493 116.916 28.0493 116.604 29.54C116.292 30.996 115.841 32.6947 115.252 34.636C114.697 36.5773 113.952 38.8307 113.016 41.396C112.115 43.9613 111.005 46.856 109.688 50.08C108.405 53.304 106.897 56.944 105.164 61ZM122.426 61L128.25 24.6H153.678L152.326 32.816H136.674L135.686 38.952H150.09L148.842 46.492H134.438L133.45 52.888H149.986L148.634 61H122.426ZM160.239 60.792L166.011 24.808C168.16 24.6 170.067 24.4613 171.731 24.392C173.43 24.288 174.938 24.2187 176.255 24.184C177.607 24.1147 178.768 24.08 179.739 24.08C182.824 24.08 185.303 24.3747 187.175 24.964C189.082 25.5187 190.468 26.3333 191.335 27.408C192.202 28.4827 192.635 29.8347 192.635 31.464C192.635 32.5387 192.479 33.5613 192.167 34.532C191.89 35.5027 191.474 36.3867 190.919 37.184C190.364 37.9467 189.688 38.64 188.891 39.264C188.128 39.888 187.244 40.4427 186.239 40.928C187.452 41.2053 188.44 41.6907 189.203 42.384C190 43.0773 190.607 43.9093 191.023 44.88C191.439 45.8507 191.647 46.9253 191.647 48.104C191.647 49.9413 191.352 51.588 190.763 53.044C190.208 54.4653 189.394 55.7133 188.319 56.788C187.279 57.8627 186.031 58.7467 184.575 59.44C183.154 60.1333 181.594 60.6533 179.895 61C178.196 61.3467 176.411 61.52 174.539 61.52C173.326 61.52 172.164 61.5027 171.055 61.468C169.946 61.4333 168.819 61.3813 167.675 61.312C166.531 61.2427 165.352 61.1733 164.139 61.104C162.96 61.0347 161.66 60.9307 160.239 60.792ZM173.551 39.16H178.803C179.254 39.16 179.722 39.0733 180.207 38.9C180.692 38.692 181.126 38.3973 181.507 38.016C181.888 37.6347 182.2 37.1493 182.443 36.56C182.72 35.9707 182.859 35.2947 182.859 34.532C182.859 33.8733 182.72 33.3707 182.443 33.024C182.2 32.6427 181.767 32.3827 181.143 32.244C180.519 32.1053 179.67 32.036 178.595 32.036C178.075 32.036 177.624 32.0533 177.243 32.088C176.862 32.088 176.48 32.1053 176.099 32.14C175.718 32.14 175.232 32.1747 174.643 32.244L173.551 39.16ZM172.355 46.388L171.211 53.512C171.558 53.5467 171.887 53.5813 172.199 53.616C172.546 53.6507 172.875 53.6853 173.187 53.72C173.534 53.72 173.846 53.72 174.123 53.72C174.435 53.72 174.712 53.72 174.955 53.72C175.822 53.72 176.602 53.668 177.295 53.564C177.988 53.4253 178.595 53.252 179.115 53.044C179.67 52.8013 180.12 52.4893 180.467 52.108C180.814 51.7267 181.074 51.276 181.247 50.756C181.42 50.2013 181.507 49.56 181.507 48.832C181.507 48.416 181.42 48.052 181.247 47.74C181.108 47.428 180.883 47.168 180.571 46.96C180.294 46.752 179.912 46.6133 179.427 46.544C178.976 46.44 178.422 46.388 177.763 46.388H172.355ZM235.877 61.52C234.04 61.52 232.341 61.4853 230.781 61.416C229.221 61.3813 227.748 61.312 226.361 61.208C224.974 61.1387 223.588 61.0347 222.201 60.896L228.025 24.6C230.348 24.4267 232.48 24.3053 234.421 24.236C236.362 24.132 238.252 24.08 240.089 24.08C242.273 24.08 244.232 24.288 245.965 24.704C247.698 25.12 249.206 25.7267 250.489 26.524C251.806 27.3213 252.881 28.3267 253.713 29.54C254.58 30.7533 255.221 32.14 255.637 33.7C256.053 35.26 256.261 37.028 256.261 39.004C256.261 42.4707 255.828 45.608 254.961 48.416C254.094 51.1893 252.794 53.5467 251.061 55.488C249.362 57.4293 247.23 58.92 244.665 59.96C242.134 61 239.205 61.52 235.877 61.52ZM236.917 53.876C238.061 53.876 239.118 53.668 240.089 53.252C241.094 52.8013 241.978 52.16 242.741 51.328C243.504 50.496 244.145 49.4907 244.665 48.312C245.185 47.0987 245.566 45.7293 245.809 44.204C246.086 42.6787 246.225 41.0147 246.225 39.212C246.225 38.276 246.138 37.4267 245.965 36.664C245.792 35.8667 245.532 35.1907 245.185 34.636C244.838 34.0467 244.422 33.5613 243.937 33.18C243.452 32.764 242.897 32.4693 242.273 32.296C241.649 32.088 240.956 31.984 240.193 31.984C239.708 31.984 239.257 32.0013 238.841 32.036C238.425 32.036 238.026 32.036 237.645 32.036C237.264 32.036 236.934 32.0533 236.657 32.088L233.225 53.72C233.676 53.72 234.074 53.7373 234.421 53.772C234.768 53.8067 235.132 53.8413 235.513 53.876C235.894 53.876 236.362 53.876 236.917 53.876ZM264.989 61L270.813 24.6H296.241L294.889 32.816H279.237L278.249 38.952H292.653L291.405 46.492H277.001L276.013 52.888H292.549L291.197 61H264.989ZM333.635 26.16L330.931 33.596C329.509 33.076 327.984 32.6773 326.355 32.4C324.76 32.1227 323.096 31.984 321.363 31.984C320.149 31.984 319.144 32.1053 318.347 32.348C317.584 32.5907 317.029 32.9547 316.683 33.44C316.336 33.8907 316.163 34.428 316.163 35.052C316.163 35.6067 316.388 36.092 316.839 36.508C317.289 36.8893 317.879 37.2707 318.607 37.652C319.369 37.9987 320.201 38.3453 321.103 38.692C322.039 39.0387 322.992 39.4373 323.963 39.888C324.968 40.304 325.939 40.7893 326.875 41.344C327.811 41.864 328.643 42.5227 329.371 43.32C330.133 44.0827 330.74 44.984 331.191 46.024C331.641 47.0293 331.867 48.2253 331.867 49.612C331.867 52.004 331.295 54.1013 330.151 55.904C329.007 57.672 327.221 59.0587 324.795 60.064C322.368 61.0347 319.248 61.52 315.435 61.52C312.696 61.52 310.148 61.2947 307.791 60.844C305.433 60.3933 303.301 59.7693 301.395 58.972L304.203 51.328C305.624 51.848 306.993 52.2813 308.311 52.628C309.663 52.94 310.997 53.1827 312.315 53.356C313.632 53.5293 314.932 53.616 316.215 53.616C317.463 53.616 318.451 53.4947 319.179 53.252C319.941 53.0093 320.479 52.6627 320.791 52.212C321.137 51.7613 321.311 51.2587 321.311 50.704C321.311 50.1147 321.085 49.612 320.635 49.196C320.219 48.7453 319.629 48.3467 318.867 48C318.104 47.6533 317.255 47.324 316.319 47.012C315.383 46.6653 314.412 46.284 313.407 45.868C312.436 45.452 311.483 44.984 310.547 44.464C309.611 43.9093 308.761 43.268 307.999 42.54C307.236 41.7773 306.629 40.876 306.179 39.836C305.763 38.796 305.555 37.5827 305.555 36.196C305.555 33.7 306.144 31.5507 307.323 29.748C308.501 27.9453 310.321 26.5587 312.783 25.588C315.244 24.5827 318.364 24.08 322.143 24.08C323.564 24.08 324.916 24.1667 326.199 24.34C327.516 24.4787 328.799 24.704 330.047 25.016C331.295 25.328 332.491 25.7093 333.635 26.16ZM341.17 61L347.046 24.6H356.874L351.05 61H341.17ZM380.333 61.52C377.976 61.52 375.861 61.2427 373.989 60.688C372.117 60.0987 370.522 59.2493 369.205 58.14C367.922 57.0307 366.934 55.644 366.241 53.98C365.582 52.316 365.253 50.392 365.253 48.208C365.253 45.7467 365.496 43.3547 365.981 41.032C366.501 38.6747 367.281 36.4733 368.321 34.428C369.361 32.3827 370.661 30.58 372.221 29.02C373.816 27.46 375.688 26.2467 377.837 25.38C380.021 24.5133 382.5 24.08 385.273 24.08C387.422 24.08 389.45 24.2187 391.357 24.496C393.264 24.7387 395.136 25.172 396.973 25.796L394.009 33.544C393.212 33.336 392.362 33.1453 391.461 32.972C390.594 32.764 389.676 32.608 388.705 32.504C387.769 32.3653 386.746 32.296 385.637 32.296C383.938 32.296 382.43 32.6947 381.113 33.492C379.796 34.2893 378.686 35.3987 377.785 36.82C376.918 38.2413 376.242 39.8707 375.757 41.708C375.306 43.5107 375.081 45.452 375.081 47.532C375.081 48.7107 375.22 49.6987 375.497 50.496C375.774 51.2933 376.173 51.952 376.693 52.472C377.213 52.9573 377.854 53.304 378.617 53.512C379.414 53.72 380.316 53.824 381.321 53.824C382.118 53.824 382.846 53.772 383.505 53.668C384.164 53.5293 384.684 53.3907 385.065 53.252L386.053 47.064H381.113L382.257 39.836H395.881L392.761 59.024C391.34 59.7867 389.572 60.3933 387.457 60.844C385.377 61.2947 383.002 61.52 380.333 61.52ZM404.454 61L410.33 24.548H419.482L426.97 45.348L430.402 24.6H439.138L433.314 61.052H424.162L416.414 41.24L413.19 61H404.454Z" fill="black"/>
</svg>
