<svg width="172" height="189" viewBox="0 0 172 189" fill="none" xmlns="http://www.w3.org/2000/svg">
<ellipse rx="41.1589" ry="21.0985" transform="matrix(-0.939336 -0.342998 -0.341978 0.939708 50.1339 148.175)" fill="#CCCCCC"/>
<path fill-rule="evenodd" clip-rule="evenodd" d="M54.7399 35.1949C60.8177 26.6123 71.0301 26.3441 77.55 34.5958L94.4905 56.0358L121.129 50.9158C131.707 48.8826 139.942 55.9601 139.522 66.7237C139.12 77.0139 130.954 86.9478 120.994 89.5783L121.541 90.2713C128.061 98.523 128.419 112.17 122.342 120.752C116.264 129.335 106.052 129.603 99.5316 121.352L80.6002 97.3917L54.9281 102.326C44.3499 104.359 36.1152 97.2816 36.5353 86.518C36.9263 76.5008 44.6756 66.8212 54.2751 63.888C49.0018 55.559 49.083 43.1833 54.7399 35.1949Z" fill="#BB9A9A"/>
<ellipse rx="17.4833" ry="17.5078" transform="matrix(-0.960402 -0.278618 -0.278618 0.960402 101.036 49.8128)" fill="#4E7B57"/>
<ellipse rx="17.4833" ry="17.5078" transform="matrix(-0.960402 -0.278618 -0.278618 0.960402 92.5673 79.0049)" fill="#4E7B57"/>
<ellipse rx="17.4833" ry="17.5078" transform="matrix(-0.960402 -0.278618 -0.278618 0.960402 85.2802 104.124)" fill="#4E7B57"/>
<ellipse rx="1.40235" ry="1.41376" transform="matrix(-0.960402 -0.278618 -0.278618 0.960402 110.965 50.656)" fill="white"/>
<ellipse rx="1.40235" ry="1.41376" transform="matrix(-0.960402 -0.278618 -0.278618 0.960402 104.428 48.0235)" fill="white"/>
<path d="M112.307 40.5647C112.453 40.0619 112.557 39.5254 112.757 39.0423C112.987 38.4858 113.458 38.16 113.744 37.6673C114.402 36.5331 115.586 35.666 116.466 34.7085C117.604 33.4687 119.158 32.3354 120.596 31.4905C122.627 30.2962 124.323 28.5155 126.511 27.5714C128.884 26.5474 132.117 26.4627 132.69 29.648C132.867 30.6284 133.063 31.1872 132.783 32.1543C132.553 32.9475 131.951 33.04 131.168 32.8127C130.388 32.5865 129.314 32.442 128.868 31.6614C128.392 30.8272 128.254 30.1414 128.088 29.2144C127.935 28.3668 128.911 28.4015 129.499 28.5721C130.275 28.7971 130.437 29.028 130.997 29.5743C131.444 30.0092 131.389 30.793 131.234 31.3292C131.123 31.7101 130.277 31.9216 130.012 31.5426C129.756 31.1751 129.689 30.6334 129.509 30.1944C129.162 29.3461 130.166 29.8377 130.18 29.8215" stroke="#2D2D2D" stroke-width="3" stroke-linecap="round"/>
<path d="M100.336 35.589C101.018 33.2387 102.129 30.6748 102.29 28.2252C102.42 26.24 102.316 23.9385 101.738 22.021C101.105 19.9221 100.718 16.3752 98.6808 15.09C98.0622 14.6998 97.6482 14.2228 96.9079 14.008C96.2472 13.8164 95.7671 13.8759 95.1278 14.0927C94.095 14.443 93.9419 15.5744 94.4137 16.4401C94.9301 17.3876 96.0356 18.4876 97.1401 17.8321C97.5602 17.5827 97.6901 16.9638 97.8171 16.5258C98.0038 15.8823 97.6742 15.6749 97.375 15.1954C97.2189 14.9452 96.6065 14.3944 96.2848 14.7289C96.1024 14.9185 95.6764 15.6173 95.7943 15.9056C95.9966 16.3997 96.2727 16.578 96.6626 16.9088C96.9843 17.1817 96.9729 16.2809 97.5421 16.446" stroke="#2D2D2D" stroke-width="3" stroke-linecap="round"/>
<path d="M111.933 56.0589C111.822 56.442 111.762 57.06 111.508 57.3669C110.791 58.2319 109.059 58.289 108.06 58.3766C107.04 58.4661 105.976 58.2943 104.99 58.0547C103.249 57.6318 102.128 56.7198 100.938 55.3777C100.048 54.3741 99.2322 53.2944 98.6467 52.0831C98.4238 51.622 98.2117 51.127 98.3615 50.6108" stroke="white" stroke-width="3" stroke-linecap="round"/>
<path d="M161.004 35.7941L158.275 43.5145L150.6 46.448L158.371 49.2039L161.359 56.8586L164.087 49.1381L171.763 46.2046L163.991 43.4488L161.004 35.7941Z" fill="#D2C67A"/>
<path d="M10.7767 94.2985L8.04835 102.019L0.372657 104.952L8.1443 107.708L11.132 115.363L13.8603 107.643L21.536 104.709L13.7644 101.953L10.7767 94.2985Z" fill="#D2C67A"/>
</svg>
