<svg width="230" height="228" viewBox="0 0 230 228" fill="none" xmlns="http://www.w3.org/2000/svg">
<path d="M162.93 72.9136C160.635 71.4541 159.18 69.5178 158.565 67.1047C157.939 64.8101 158.326 62.5602 159.729 60.3549C161.102 58.1947 162.961 56.9116 165.305 56.5058C167.677 56.055 170.033 56.5736 172.373 58.0617C174.714 59.5497 176.183 61.4635 176.781 63.8031C177.408 66.0976 177.034 68.325 175.661 70.4853C174.287 72.6456 172.4 73.9736 169.999 74.4695C167.627 74.9203 165.27 74.4017 162.93 72.9136ZM174.593 53.9745C172.973 52.9443 172.183 51.652 172.223 50.0976C172.251 48.6618 172.975 47.2258 174.394 45.7895C176.426 44.6802 179.776 43.9345 184.443 43.5524C187.028 43.3633 188.851 43.1315 189.91 42.857C191.66 42.3901 192.893 41.594 193.609 40.4689C194.754 38.6686 194.906 36.8381 194.067 34.9772C193.306 33.2922 191.755 31.7057 189.414 30.2176C187.299 28.8726 184.939 28.1618 182.333 28.085C178.603 28.6836 176.248 27.218 175.269 23.6883C174.397 20.2894 175.617 18.2212 178.93 17.4837C185.45 16.5732 191.478 17.8779 197.013 21.3978C202.279 24.746 205.749 28.5325 207.424 32.7573C209.27 37.4075 208.72 42.0504 205.772 46.686C204.399 48.8463 202.448 50.3237 199.92 51.1182C198.407 51.6096 195.959 51.9807 192.576 52.2314C189.177 52.4086 186.692 52.7879 185.122 53.3693C181.748 56.0907 178.239 56.2924 174.593 53.9745Z" fill="#4E7B57"/>
<ellipse rx="82.7364" ry="32.083" transform="matrix(0.978456 -0.206454 0.210843 0.97752 142.281 171.371)" fill="#CCCCCC"/>
<ellipse rx="60.5215" ry="60.1734" transform="matrix(0.957247 0.289273 -0.295151 0.955451 104.801 153)" fill="#D2C67A"/>
<ellipse rx="3.04079" ry="3.01319" transform="matrix(0.957247 0.289273 -0.295151 0.955451 75.4287 140.098)" fill="white"/>
<ellipse rx="3.04079" ry="3.01319" transform="matrix(0.957247 0.289273 -0.295151 0.955451 93.6865 141.168)" fill="white"/>
<path d="M76.2928 156.836C83.3543 163.167 89.4992 158.729 89.4992 158.729" stroke="white" stroke-width="2" stroke-linecap="round"/>
<path d="M23.3639 103.06L24.0349 114.733L33.4073 121.81L21.6364 122.497L14.4837 131.806L13.8127 120.133L4.44031 113.056L16.2112 112.369L23.3639 103.06Z" fill="#D2C67A"/>
<path d="M64.8422 65.1446C62.1305 65.3575 59.804 64.6841 57.8627 63.1246C55.9829 61.6672 54.9408 59.6358 54.7363 57.0305C54.536 54.4784 55.2505 52.3359 56.88 50.6031C58.5052 48.8171 60.7002 47.8156 63.465 47.5986C66.2299 47.3816 68.5543 48.0284 70.4383 49.5389C72.3181 50.9963 73.3581 53.001 73.5584 55.5532C73.7587 58.1054 73.0484 60.301 71.4273 62.1401C69.8021 63.9261 67.607 64.9276 64.8422 65.1446ZM62.783 42.9979C60.8688 43.1481 59.4609 42.5899 58.559 41.3232C57.7186 40.1588 57.4339 38.5762 57.7049 36.5755C58.6628 34.4674 60.8922 31.8583 64.3929 28.7482C66.3455 27.0435 67.6627 25.7632 68.3445 24.9072C69.463 23.482 69.9702 22.1047 69.8658 20.7755C69.6989 18.6487 68.7209 17.0938 66.9318 16.1108C65.3106 15.2216 63.1176 14.8855 60.3528 15.1025C57.8538 15.2986 55.5399 16.1489 53.4111 17.6535C50.7892 20.3736 48.0265 20.6172 45.1229 18.3842C42.3829 16.1919 42.1154 13.8055 44.3202 11.2251C48.9843 6.57923 54.5863 3.99964 61.1262 3.48634C67.3471 2.99808 72.3962 3.93922 76.2736 6.30976C80.544 8.91694 82.8941 12.9588 83.324 18.4353C83.5243 20.9874 82.853 23.3405 81.3102 25.4945C80.3959 26.7967 78.6623 28.5644 76.1092 30.7977C73.4988 32.982 71.7406 34.7784 70.8347 36.1869C69.7736 40.3895 67.0897 42.6598 62.783 42.9979Z" fill="#4E7B57"/>
<path d="M118.466 64.3688C115.777 63.9632 113.663 62.7814 112.124 60.8234C110.622 58.9788 110.066 56.7645 110.456 54.1804C110.838 51.649 112.018 49.7235 113.997 48.4038C115.984 47.0314 118.349 46.552 121.091 46.9656C123.833 47.3792 125.951 48.5346 127.445 50.4319C128.947 52.2765 129.507 54.4645 129.125 56.9958C128.743 59.5272 127.555 61.5055 125.56 62.9306C123.573 64.303 121.209 64.7824 118.466 64.3688ZM121.467 42.3298C119.568 42.0435 118.323 41.1814 117.73 39.7437C117.175 38.4194 117.255 36.8134 117.972 34.9258C119.381 33.0888 122.143 31.0512 126.256 28.8128C128.543 27.5936 130.116 26.6442 130.973 25.9645C132.385 24.829 133.19 23.602 133.389 22.2836C133.707 20.1741 133.106 18.4384 131.586 17.0764C130.207 15.8437 128.147 15.0206 125.405 14.6071C122.926 14.2333 120.48 14.5385 118.066 15.5229C114.897 17.58 112.151 17.1928 109.827 14.3613C107.654 11.6064 107.932 9.2213 110.664 7.20604C116.257 3.73469 122.297 2.48814 128.784 3.4664C134.954 4.39694 139.66 6.45503 142.901 9.64065C146.472 13.1456 147.847 17.6141 147.028 23.046C146.646 25.5774 145.46 27.7178 143.471 29.4673C142.286 30.5291 140.197 31.8593 137.206 33.4576C134.169 34.9953 132.05 36.3478 130.849 37.5152C128.866 41.3691 125.738 42.974 121.467 42.3298Z" fill="#4E7B57"/>
</svg>
