<svg width="258" height="226" viewBox="0 0 258 226" fill="none" xmlns="http://www.w3.org/2000/svg">
<ellipse cx="107.87" cy="165.283" rx="109.633" ry="55.5238" transform="rotate(14.1288 107.87 165.283)" fill="#CCCCCC"/>
<rect x="112.426" y="83.4385" width="100" height="150.37" rx="3" transform="rotate(-20.1444 112.426 83.4385)" fill="#8A8EA3"/>
<path d="M112.95 3.76108C113.091 1.71977 115.188 0.414888 117.081 1.19128L210.499 39.5033C212.762 40.4317 213.022 43.5339 210.945 44.8263L110.6 107.245C108.522 108.537 105.854 106.932 106.022 104.491L112.95 3.76108Z" fill="white"/>
<circle cx="184.437" cy="84.468" r="2" transform="rotate(15.7576 184.437 84.468)" fill="white"/>
<circle cx="199.437" cy="75.468" r="2" transform="rotate(15.7576 199.437 75.468)" fill="white"/>
<ellipse cx="199.848" cy="96.2673" rx="4" ry="9.48357" transform="rotate(-18.8361 199.848 96.2673)" fill="white"/>
<rect x="196" y="113" width="19" height="3" rx="1.5" fill="white"/>
</svg>
