<svg width="337" height="38" viewBox="0 0 337 38" fill="none" xmlns="http://www.w3.org/2000/svg">
<path d="M0.156 37L6.032 0.599998H31.252L29.848 9.024H14.456L13.156 17.292H26.416L25.064 25.612H11.856L10.036 37H0.156ZM36.5966 37L42.4726 0.599998C44.518 0.495999 46.3553 0.409332 47.9846 0.339998C49.6486 0.270665 51.1566 0.218666 52.5086 0.184C53.8953 0.114665 55.126 0.079998 56.2006 0.079998C58.8006 0.079998 61.0193 0.322665 62.8566 0.807998C64.694 1.29333 66.202 1.98666 67.3806 2.888C68.5593 3.78933 69.426 4.89866 69.9806 6.216C70.5353 7.49867 70.8126 8.972 70.8126 10.636C70.8126 13.5133 70.206 15.9573 68.9926 17.968C67.814 19.9787 66.15 21.5213 64.0006 22.596C61.8513 23.6707 59.3206 24.208 56.4086 24.208L54.4846 25.716C53.7566 25.6813 53.046 25.664 52.3526 25.664C51.694 25.664 51.018 25.664 50.3246 25.664C49.666 25.664 48.99 25.664 48.2966 25.664L46.4766 37H36.5966ZM65.2486 37.52C64.174 37.52 63.1513 37.3813 62.1806 37.104C61.21 36.8267 60.2566 36.3933 59.3206 35.804C58.3846 35.18 57.466 34.3653 56.5646 33.36C55.6633 32.32 54.7273 31.0547 53.7566 29.564C52.8206 28.0733 51.85 26.3227 50.8446 24.312L60.4126 21.972C60.8633 22.804 61.3313 23.5493 61.8166 24.208C62.3366 24.8667 62.8566 25.4387 63.3766 25.924C63.9313 26.4093 64.4686 26.808 64.9886 27.12C65.5433 27.432 66.0806 27.6747 66.6006 27.848C67.1553 27.9867 67.6753 28.056 68.1606 28.056C68.2993 28.056 68.438 28.056 68.5766 28.056C68.75 28.056 68.906 28.0387 69.0446 28.004L67.9006 37.156C67.658 37.26 67.2246 37.3467 66.6006 37.416C66.0113 37.4853 65.5606 37.52 65.2486 37.52ZM53.6006 18.54C55.0913 18.54 56.3566 18.28 57.3966 17.76C58.4366 17.2053 59.2166 16.4253 59.7366 15.42C60.2913 14.38 60.5686 13.1493 60.5686 11.728C60.5686 11.1733 60.4993 10.6533 60.3606 10.168C60.222 9.68267 59.962 9.26667 59.5806 8.92C59.234 8.57333 58.766 8.296 58.1766 8.088C57.5873 7.88 56.8246 7.776 55.8886 7.776C55.438 7.776 55.0393 7.776 54.6926 7.776C54.346 7.776 53.9993 7.79333 53.6526 7.828C53.3406 7.828 52.994 7.84533 52.6126 7.88C52.2313 7.91467 51.7286 7.94933 51.1046 7.984L49.4406 18.332C49.8913 18.3667 50.3246 18.4013 50.7406 18.436C51.1913 18.4707 51.642 18.5053 52.0926 18.54C52.578 18.54 53.0806 18.54 53.6006 18.54ZM94.2801 37.312C89.6347 37.312 86.0814 35.9947 83.6201 33.36C81.1587 30.7253 79.9974 26.9467 80.1361 22.024C80.2401 19.84 80.4827 17.7947 80.8641 15.888C81.2454 13.9467 81.7827 12.1787 82.4761 10.584C83.2041 8.98933 84.0707 7.55067 85.0761 6.268C86.1161 4.98533 87.2947 3.91066 88.6121 3.044C89.9641 2.14266 91.4547 1.46667 93.0841 1.016C94.7481 0.530665 96.5681 0.287998 98.5441 0.287998C103.224 0.287998 106.777 1.60533 109.204 4.24C111.665 6.87467 112.809 10.6533 112.636 15.576C112.567 17.7253 112.341 19.7707 111.96 21.712C111.579 23.6533 111.024 25.4213 110.296 27.016C109.603 28.6107 108.736 30.0493 107.696 31.332C106.691 32.6147 105.512 33.7067 104.16 34.608C102.808 35.4747 101.317 36.1507 99.6881 36.636C98.0587 37.0867 96.2561 37.312 94.2801 37.312ZM95.0601 29.148C95.9267 29.148 96.7067 28.9573 97.4001 28.576C98.0934 28.1947 98.7174 27.6573 99.2721 26.964C99.8267 26.2707 100.312 25.4733 100.728 24.572C101.144 23.636 101.491 22.648 101.768 21.608C102.08 20.5333 102.288 19.4413 102.392 18.332C102.531 17.188 102.6 16.0613 102.6 14.952C102.6 12.3867 102.184 10.6707 101.352 9.804C100.52 8.90267 99.3241 8.452 97.7641 8.452C96.8974 8.452 96.1174 8.64266 95.4241 9.024C94.7654 9.40533 94.1414 9.94267 93.5521 10.636C92.9974 11.3293 92.5121 12.144 92.0961 13.08C91.6801 13.9813 91.3161 14.9693 91.0041 16.044C90.7267 17.084 90.5187 18.176 90.3801 19.32C90.2414 20.4293 90.1721 21.5387 90.1721 22.648C90.1721 25.2133 90.5881 26.9467 91.4201 27.848C92.2867 28.7147 93.5001 29.148 95.0601 29.148ZM121.259 37L127.135 0.547998H136.287L143.775 21.348L147.207 0.599998H155.943L150.119 37.052H140.967L133.219 17.24L129.995 37H121.259ZM195.066 8.556H185.29L180.818 37H170.938L175.462 8.556H165.686L167.09 0.599998H196.418L195.066 8.556ZM222.559 37L228.383 0.599998H253.811L252.459 8.816H236.807L235.819 14.952H250.223L248.975 22.492H234.571L233.583 28.888H250.119L248.767 37H222.559ZM260.268 37L266.144 0.547998H275.296L282.784 21.348L286.216 0.599998H294.952L289.128 37.052H279.976L272.228 17.24L269.004 37H260.268ZM315.667 37.52C313.829 37.52 312.131 37.4853 310.571 37.416C309.011 37.3813 307.537 37.312 306.151 37.208C304.764 37.1387 303.377 37.0347 301.991 36.896L307.815 0.599998C310.137 0.426664 312.269 0.305332 314.211 0.235999C316.152 0.131998 318.041 0.079998 319.879 0.079998C322.063 0.079998 324.021 0.287998 325.755 0.703999C327.488 1.12 328.996 1.72666 330.279 2.524C331.596 3.32133 332.671 4.32666 333.503 5.54C334.369 6.75333 335.011 8.14 335.427 9.7C335.843 11.26 336.051 13.028 336.051 15.004C336.051 18.4707 335.617 21.608 334.751 24.416C333.884 27.1893 332.584 29.5467 330.851 31.488C329.152 33.4293 327.02 34.92 324.455 35.96C321.924 37 318.995 37.52 315.667 37.52ZM316.707 29.876C317.851 29.876 318.908 29.668 319.879 29.252C320.884 28.8013 321.768 28.16 322.531 27.328C323.293 26.496 323.935 25.4907 324.455 24.312C324.975 23.0987 325.356 21.7293 325.599 20.204C325.876 18.6787 326.015 17.0147 326.015 15.212C326.015 14.276 325.928 13.4267 325.755 12.664C325.581 11.8667 325.321 11.1907 324.975 10.636C324.628 10.0467 324.212 9.56133 323.727 9.18C323.241 8.764 322.687 8.46933 322.063 8.296C321.439 8.088 320.745 7.984 319.983 7.984C319.497 7.984 319.047 8.00133 318.631 8.036C318.215 8.036 317.816 8.036 317.435 8.036C317.053 8.036 316.724 8.05333 316.447 8.088L313.015 29.72C313.465 29.72 313.864 29.7373 314.211 29.772C314.557 29.8067 314.921 29.8413 315.303 29.876C315.684 29.876 316.152 29.876 316.707 29.876Z" fill="black"/>
</svg>
