<svg width="311" height="128" viewBox="0 0 311 128" fill="none" xmlns="http://www.w3.org/2000/svg">
<path d="M130.36 27.56H132.36V25.56H130.36V27.56ZM118.6 26.84L120.014 25.4258H120.014L118.6 26.84ZM118.4 21.8L120.051 22.9294L120.087 22.8759L120.12 22.8202L118.4 21.8ZM127.32 6.76L125.609 5.72439L125.604 5.73206L125.6 5.73977L127.32 6.76ZM136.28 5.96L137.694 4.54579L137.694 4.54579L136.28 5.96ZM137 22.16H135V24.16H137V22.16ZM137 27.56V25.56H135V27.56H137ZM124.68 22.16L122.949 21.1589L121.213 24.16H124.68V22.16ZM130.36 22.16V24.16H132.36V22.16H130.36ZM130.48 14.48L132.476 14.613L132.476 14.602L132.477 14.5909L130.48 14.48ZM130.56 12.4L128.569 12.2104L128.563 12.2757L128.561 12.3412L130.56 12.4ZM130.64 11.2H132.64V9.2H130.64V11.2ZM130.48 11.2V9.2H129.189L128.658 10.3762L130.48 11.2ZM128.08 16.28L129.811 17.2811L129.842 17.2287L129.869 17.1744L128.08 16.28ZM133.68 33C132.882 33 132.65 32.8018 132.604 32.7558C132.558 32.7098 132.36 32.4784 132.36 31.68H128.36C128.36 33.095 128.715 34.5235 129.776 35.5842C130.836 36.6449 132.265 37 133.68 37V33ZM132.36 31.68V27.56H128.36V31.68H132.36ZM130.36 25.56H124.12V29.56H130.36V25.56ZM124.12 25.56H120.48V29.56H124.12V25.56ZM120.48 25.56C120.157 25.56 120.066 25.4775 120.014 25.4258L117.186 28.2542C118.094 29.1625 119.257 29.56 120.48 29.56V25.56ZM120.014 25.4258C119.962 25.3741 119.88 25.2832 119.88 24.96H115.88C115.88 26.1835 116.278 27.3459 117.186 28.2542L120.014 25.4258ZM119.88 24.96V23.64H115.88V24.96H119.88ZM119.88 23.64C119.88 23.2517 119.969 23.049 120.051 22.9294L116.749 20.6706C116.138 21.5644 115.88 22.5883 115.88 23.64H119.88ZM120.12 22.8202L129.04 7.78023L125.6 5.73977L116.68 20.7798L120.12 22.8202ZM129.031 7.7956C129.286 7.37393 129.535 7.24 130 7.24V3.24C128.119 3.24 126.58 4.11941 125.609 5.72439L129.031 7.7956ZM130 7.24H134.4V3.24H130V7.24ZM134.4 7.24C134.723 7.24 134.814 7.3225 134.866 7.37421L137.694 4.54579C136.786 3.6375 135.623 3.24 134.4 3.24V7.24ZM134.866 7.37421C134.918 7.42593 135 7.51678 135 7.84H139C139 6.61655 138.602 5.45407 137.694 4.54579L134.866 7.37421ZM135 7.84V22.16H139V7.84H135ZM137 24.16H137.64V20.16H137V24.16ZM137.64 24.16C138.225 24.16 138.296 24.3049 138.236 24.2442C138.175 24.1835 138.32 24.255 138.32 24.84H142.32C142.32 23.6384 142.018 22.3698 141.064 21.4158C140.11 20.4618 138.842 20.16 137.64 20.16V24.16ZM138.32 24.84C138.32 25.4458 138.171 25.5313 138.225 25.4763C138.285 25.4158 138.217 25.56 137.64 25.56V29.56C138.849 29.56 140.122 29.2508 141.075 28.2837C142.022 27.322 142.32 26.0476 142.32 24.84H138.32ZM137.64 25.56H137V29.56H137.64V25.56ZM135 27.56V31.68H139V27.56H135ZM135 31.68C135 32.4784 134.802 32.7098 134.756 32.7558C134.71 32.8018 134.478 33 133.68 33V37C135.095 37 136.524 36.6449 137.584 35.5842C138.645 34.5235 139 33.095 139 31.68H135ZM124.68 24.16H130.36V20.16H124.68V24.16ZM132.36 22.16V17.8H128.36V22.16H132.36ZM132.36 17.8C132.36 16.8383 132.398 15.7766 132.476 14.613L128.484 14.347C128.402 15.5833 128.36 16.735 128.36 17.8H132.36ZM132.477 14.5909C132.505 14.0845 132.532 13.3705 132.559 12.4588L128.561 12.3412C128.534 13.2428 128.508 13.9155 128.483 14.3691L132.477 14.5909ZM132.551 12.5896C132.605 12.0275 132.64 11.544 132.64 11.2H128.64C128.64 11.336 128.622 11.6525 128.569 12.2104L132.551 12.5896ZM130.64 9.2H130.48V13.2H130.64V9.2ZM128.658 10.3762C127.785 12.3062 126.996 13.975 126.291 15.3856L129.869 17.1744C130.604 15.705 131.415 13.9871 132.302 12.0238L128.658 10.3762ZM126.349 15.2789L122.949 21.1589L126.411 23.1611L129.811 17.2811L126.349 15.2789ZM151.055 33.08L152.6 31.8095L152.598 31.8076L151.055 33.08ZM149.175 17.8H151.175V15.8H149.175V17.8ZM148.575 12.32L148.416 10.3264L148.414 10.3265L148.575 12.32ZM149.575 12.24L149.734 14.2336L151.345 14.1048L151.558 12.5028L149.575 12.24ZM150.015 8.92L148.033 8.65373L148.032 8.65724L150.015 8.92ZM156.295 12.24H154.295V14.24H156.295V12.24ZM156.295 17.8V15.8H154.295V17.8H156.295ZM159.255 30V32H159.461L159.663 31.958L159.255 30ZM160.895 30.36L159.624 31.9039L159.651 31.9268L159.68 31.9487L160.895 30.36ZM161.775 31.92L159.811 32.2977L159.818 32.3318L159.825 32.3657L161.775 31.92ZM160.335 35.24L160.781 37.1897L160.8 37.1852L160.82 37.1803L160.335 35.24ZM157.215 33.56C154.883 33.56 153.477 32.8761 152.6 31.8095L149.51 34.3505C151.353 36.5906 154.053 37.56 157.215 37.56V33.56ZM152.598 31.8076C151.745 30.7733 151.175 29.1199 151.175 26.56H147.175C147.175 29.6535 147.858 32.3467 149.512 34.3524L152.598 31.8076ZM151.175 26.56V22.2H147.175V26.56H151.175ZM151.175 22.2V17.8H147.175V22.2H151.175ZM149.175 15.8H148.735V19.8H149.175V15.8ZM148.735 15.8C148.179 15.8 148.125 15.6602 148.19 15.727C148.244 15.7828 148.095 15.6931 148.095 15.08H144.095C144.095 16.2802 144.386 17.5505 145.32 18.513C146.265 19.4865 147.531 19.8 148.735 19.8V15.8ZM148.095 15.08C148.095 14.8103 148.128 14.6419 148.158 14.5479C148.172 14.5024 148.185 14.4758 148.192 14.4627C148.196 14.4561 148.199 14.452 148.2 14.4499C148.202 14.4478 148.202 14.4469 148.203 14.4467C148.203 14.4465 148.203 14.4462 148.204 14.4455C148.205 14.4448 148.207 14.4431 148.211 14.4403C148.218 14.4352 148.237 14.4233 148.272 14.4083C148.345 14.3774 148.489 14.3334 148.736 14.3135L148.414 10.3265C147.255 10.4199 146.086 10.8179 145.227 11.7733C144.377 12.7197 144.095 13.9214 144.095 15.08H148.095ZM148.734 14.3136L149.734 14.2336L149.416 10.2464L148.416 10.3264L148.734 14.3136ZM151.558 12.5028L151.998 9.18276L148.032 8.65724L147.592 11.9772L151.558 12.5028ZM151.997 9.18626C152.071 8.63702 152.231 8.48377 152.279 8.44329C152.341 8.39143 152.569 8.24 153.215 8.24V4.24C151.968 4.24 150.716 4.53523 149.711 5.3767C148.693 6.22956 148.199 7.41631 148.033 8.65373L151.997 9.18626ZM153.215 8.24C153.953 8.24 154.135 8.41841 154.139 8.42202C154.146 8.42868 154.178 8.45831 154.213 8.56039C154.252 8.67299 154.295 8.87439 154.295 9.2H158.295C158.295 7.88437 157.949 6.53526 156.911 5.53797C155.888 4.55492 154.531 4.24 153.215 4.24V8.24ZM154.295 9.2V12.24H158.295V9.2H154.295ZM156.295 14.24H158.895V10.24H156.295V14.24ZM158.895 14.24C159.507 14.24 159.598 14.3916 159.551 14.3442C159.503 14.2969 159.655 14.3883 159.655 15H163.655C163.655 13.7717 163.347 12.4831 162.379 11.5158C161.412 10.5484 160.123 10.24 158.895 10.24V14.24ZM159.655 15C159.655 15.6322 159.5 15.7376 159.541 15.696C159.587 15.6491 159.499 15.8 158.895 15.8V19.8C160.131 19.8 161.423 19.4843 162.389 18.504C163.35 17.529 163.655 16.2344 163.655 15H159.655ZM158.895 15.8H156.295V19.8H158.895V15.8ZM154.295 17.8V26.48H158.295V17.8H154.295ZM154.295 26.48C154.295 27.875 154.572 29.2928 155.467 30.3865C156.425 31.557 157.789 32 159.175 32V28C158.641 28 158.565 27.8563 158.563 27.8535C158.498 27.7739 158.295 27.4316 158.295 26.48H154.295ZM159.175 32C159.175 32 159.175 32 159.175 32C159.175 32 159.175 32 159.175 32C159.175 32 159.175 32 159.175 32C159.176 32 159.176 32 159.176 32C159.176 32 159.176 32 159.176 32C159.176 32 159.176 32 159.176 32C159.176 32 159.176 32 159.176 32C159.176 32 159.176 32 159.176 32C159.176 32 159.176 32 159.176 32C159.176 32 159.177 32 159.177 32C159.177 32 159.177 32 159.177 32C159.177 32 159.177 32 159.177 32C159.177 32 159.177 32 159.177 32C159.177 32 159.177 32 159.177 32C159.177 32 159.177 32 159.177 32C159.177 32 159.177 32 159.178 32C159.178 32 159.178 32 159.178 32C159.178 32 159.178 32 159.178 32C159.178 32 159.178 32 159.178 32C159.178 32 159.178 32 159.178 32C159.178 32 159.178 32 159.178 32C159.178 32 159.178 32 159.178 32C159.178 32 159.179 32 159.179 32C159.179 32 159.179 32 159.179 32C159.179 32 159.179 32 159.179 32C159.179 32 159.179 32 159.179 32C159.179 32 159.179 32 159.179 32C159.179 32 159.179 32 159.179 32C159.179 32 159.179 32 159.18 32C159.18 32 159.18 32 159.18 32C159.18 32 159.18 32 159.18 32C159.18 32 159.18 32 159.18 32C159.18 32 159.18 32 159.18 32C159.18 32 159.18 32 159.18 32C159.18 32 159.18 32 159.18 32C159.181 32 159.181 32 159.181 32C159.181 32 159.181 32 159.181 32C159.181 32 159.181 32 159.181 32C159.181 32 159.181 32 159.181 32C159.181 32 159.181 32 159.181 32C159.181 32 159.181 32 159.181 32C159.181 32 159.182 32 159.182 32C159.182 32 159.182 32 159.182 32C159.182 32 159.182 32 159.182 32C159.182 32 159.182 32 159.182 32C159.182 32 159.182 32 159.182 32C159.182 32 159.182 32 159.182 32C159.182 32 159.182 32 159.183 32C159.183 32 159.183 32 159.183 32C159.183 32 159.183 32 159.183 32C159.183 32 159.183 32 159.183 32C159.183 32 159.183 32 159.183 32C159.183 32 159.183 32 159.183 32C159.183 32 159.183 32 159.183 32C159.183 32 159.184 32 159.184 32C159.184 32 159.184 32 159.184 32C159.184 32 159.184 32 159.184 32C159.184 32 159.184 32 159.184 32C159.184 32 159.184 32 159.184 32C159.184 32 159.184 32 159.184 32C159.184 32 159.184 32 159.185 32C159.185 32 159.185 32 159.185 32C159.185 32 159.185 32 159.185 32C159.185 32 159.185 32 159.185 32C159.185 32 159.185 32 159.185 32C159.185 32 159.185 32 159.185 32C159.185 32 159.185 32 159.185 32C159.186 32 159.186 32 159.186 32C159.186 32 159.186 32 159.186 32C159.186 32 159.186 32 159.186 32C159.186 32 159.186 32 159.186 32C159.186 32 159.186 32 159.186 32C159.186 32 159.186 32 159.186 32C159.186 32 159.187 32 159.187 32C159.187 32 159.187 32 159.187 32C159.187 32 159.187 32 159.187 32C159.187 32 159.187 32 159.187 32C159.187 32 159.187 32 159.187 32C159.187 32 159.187 32 159.187 32C159.187 32 159.187 32 159.188 32C159.188 32 159.188 32 159.188 32C159.188 32 159.188 32 159.188 32C159.188 32 159.188 32 159.188 32C159.188 32 159.188 32 159.188 32C159.188 32 159.188 32 159.188 32C159.188 32 159.188 32 159.188 32C159.188 32 159.189 32 159.189 32C159.189 32 159.189 32 159.189 32C159.189 32 159.189 32 159.189 32C159.189 32 159.189 32 159.189 32C159.189 32 159.189 32 159.189 32C159.189 32 159.189 32 159.189 32C159.189 32 159.189 32 159.19 32C159.19 32 159.19 32 159.19 32C159.19 32 159.19 32 159.19 32C159.19 32 159.19 32 159.19 32C159.19 32 159.19 32 159.19 32C159.19 32 159.19 32 159.19 32C159.19 32 159.19 32 159.19 32C159.191 32 159.191 32 159.191 32C159.191 32 159.191 32 159.191 32C159.191 32 159.191 32 159.191 32C159.191 32 159.191 32 159.191 32C159.191 32 159.191 32 159.191 32C159.191 32 159.191 32 159.191 32C159.191 32 159.192 32 159.192 32C159.192 32 159.192 32 159.192 32C159.192 32 159.192 32 159.192 32C159.192 32 159.192 32 159.192 32C159.192 32 159.192 32 159.192 32C159.192 32 159.192 32 159.192 32C159.192 32 159.192 32 159.193 32C159.193 32 159.193 32 159.193 32C159.193 32 159.193 32 159.193 32C159.193 32 159.193 32 159.193 32C159.193 32 159.193 32 159.193 32C159.193 32 159.193 32 159.193 32C159.193 32 159.193 32 159.193 32C159.193 32 159.194 32 159.194 32C159.194 32 159.194 32 159.194 32C159.194 32 159.194 32 159.194 32C159.194 32 159.194 32 159.194 32C159.194 32 159.194 32 159.194 32C159.194 32 159.194 32 159.194 32C159.194 32 159.194 32 159.195 32C159.195 32 159.195 32 159.195 32C159.195 32 159.195 32 159.195 32C159.195 32 159.195 32 159.195 32C159.195 32 159.195 32 159.195 32C159.195 32 159.195 32 159.195 32C159.195 32 159.195 32 159.195 32C159.196 32 159.196 32 159.196 32C159.196 32 159.196 32 159.196 32C159.196 32 159.196 32 159.196 32C159.196 32 159.196 32 159.196 32C159.196 32 159.196 32 159.196 32C159.196 32 159.196 32 159.196 32C159.196 32 159.197 32 159.197 32C159.197 32 159.197 32 159.197 32C159.197 32 159.197 32 159.197 32C159.197 32 159.197 32 159.197 32C159.197 32 159.197 32 159.197 32C159.197 32 159.197 32 159.197 32C159.197 32 159.197 32 159.198 32C159.198 32 159.198 32 159.198 32C159.198 32 159.198 32 159.198 32C159.198 32 159.198 32 159.198 32C159.198 32 159.198 32 159.198 32C159.198 32 159.198 32 159.198 32C159.198 32 159.198 32 159.198 32C159.198 32 159.199 32 159.199 32C159.199 32 159.199 32 159.199 32C159.199 32 159.199 32 159.199 32C159.199 32 159.199 32 159.199 32C159.199 32 159.199 32 159.199 32C159.199 32 159.199 32 159.199 32C159.199 32 159.199 32 159.2 32C159.2 32 159.2 32 159.2 32C159.2 32 159.2 32 159.2 32C159.2 32 159.2 32 159.2 32C159.2 32 159.2 32 159.2 32C159.2 32 159.2 32 159.2 32C159.2 32 159.2 32 159.2 32C159.201 32 159.201 32 159.201 32C159.201 32 159.201 32 159.201 32C159.201 32 159.201 32 159.201 32C159.201 32 159.201 32 159.201 32C159.201 32 159.201 32 159.201 32C159.201 32 159.201 32 159.201 32C159.201 32 159.202 32 159.202 32C159.202 32 159.202 32 159.202 32C159.202 32 159.202 32 159.202 32C159.202 32 159.202 32 159.202 32C159.202 32 159.202 32 159.202 32C159.202 32 159.202 32 159.202 32C159.202 32 159.202 32 159.202 32C159.203 32 159.203 32 159.203 32C159.203 32 159.203 32 159.203 32C159.203 32 159.203 32 159.203 32C159.203 32 159.203 32 159.203 32C159.203 32 159.203 32 159.203 32C159.203 32 159.203 32 159.203 32C159.203 32 159.204 32 159.204 32C159.204 32 159.204 32 159.204 32C159.204 32 159.204 32 159.204 32C159.204 32 159.204 32 159.204 32C159.204 32 159.204 32 159.204 32C159.204 32 159.204 32 159.204 32C159.204 32 159.204 32 159.205 32C159.205 32 159.205 32 159.205 32C159.205 32 159.205 32 159.205 32C159.205 32 159.205 32 159.205 32C159.205 32 159.205 32 159.205 32C159.205 32 159.205 32 159.205 32C159.205 32 159.205 32 159.205 32C159.206 32 159.206 32 159.206 32C159.206 32 159.206 32 159.206 32C159.206 32 159.206 32 159.206 32C159.206 32 159.206 32 159.206 32C159.206 32 159.206 32 159.206 32C159.206 32 159.206 32 159.206 32C159.206 32 159.207 32 159.207 32C159.207 32 159.207 32 159.207 32C159.207 32 159.207 32 159.207 32C159.207 32 159.207 32 159.207 32C159.207 32 159.207 32 159.207 32C159.207 32 159.207 32 159.207 32C159.207 32 159.207 32 159.208 32C159.208 32 159.208 32 159.208 32C159.208 32 159.208 32 159.208 32C159.208 32 159.208 32 159.208 32C159.208 32 159.208 32 159.208 32C159.208 32 159.208 32 159.208 32C159.208 32 159.208 32 159.208 32C159.208 32 159.209 32 159.209 32C159.209 32 159.209 32 159.209 32C159.209 32 159.209 32 159.209 32C159.209 32 159.209 32 159.209 32C159.209 32 159.209 32 159.209 32C159.209 32 159.209 32 159.209 32C159.209 32 159.209 32 159.21 32C159.21 32 159.21 32 159.21 32C159.21 32 159.21 32 159.21 32C159.21 32 159.21 32 159.21 32C159.21 32 159.21 32 159.21 32C159.21 32 159.21 32 159.21 32C159.21 32 159.21 32 159.21 32C159.211 32 159.211 32 159.211 32C159.211 32 159.211 32 159.211 32C159.211 32 159.211 32 159.211 32C159.211 32 159.211 32 159.211 32C159.211 32 159.211 32 159.211 32C159.211 32 159.211 32 159.211 32C159.211 32 159.212 32 159.212 32C159.212 32 159.212 32 159.212 32C159.212 32 159.212 32 159.212 32C159.212 32 159.212 32 159.212 32C159.212 32 159.212 32 159.212 32C159.212 32 159.212 32 159.212 32C159.212 32 159.212 32 159.213 32C159.213 32 159.213 32 159.213 32C159.213 32 159.213 32 159.213 32C159.213 32 159.213 32 159.213 32C159.213 32 159.213 32 159.213 32C159.213 32 159.213 32 159.213 32C159.213 32 159.213 32 159.213 32C159.213 32 159.214 32 159.214 32C159.214 32 159.214 32 159.214 32C159.214 32 159.214 32 159.214 32C159.214 32 159.214 32 159.214 32C159.214 32 159.214 32 159.214 32C159.214 32 159.214 32 159.214 32C159.214 32 159.214 32 159.215 32C159.215 32 159.215 32 159.215 32C159.215 32 159.215 32 159.215 32C159.215 32 159.215 32 159.215 32C159.215 32 159.215 32 159.215 32C159.215 32 159.215 32 159.215 32C159.215 32 159.215 32 159.215 32C159.216 32 159.216 32 159.216 32C159.216 32 159.216 32 159.216 32C159.216 32 159.216 32 159.216 32C159.216 32 159.216 32 159.216 32C159.216 32 159.216 32 159.216 32C159.216 32 159.216 32 159.216 32C159.216 32 159.217 32 159.217 32C159.217 32 159.217 32 159.217 32C159.217 32 159.217 32 159.217 32C159.217 32 159.217 32 159.217 32C159.217 32 159.217 32 159.217 32C159.217 32 159.217 32 159.217 32C159.217 32 159.217 32 159.217 32C159.218 32 159.218 32 159.218 32C159.218 32 159.218 32 159.218 32C159.218 32 159.218 32 159.218 32C159.218 32 159.218 32 159.218 32C159.218 32 159.218 32 159.218 32C159.218 32 159.218 32 159.218 32C159.218 32 159.219 32 159.219 32C159.219 32 159.219 32 159.219 32C159.219 32 159.219 32 159.219 32C159.219 32 159.219 32 159.219 32C159.219 32 159.219 32 159.219 32C159.219 32 159.219 32 159.219 32C159.219 32 159.219 32 159.22 32C159.22 32 159.22 32 159.22 32C159.22 32 159.22 32 159.22 32C159.22 32 159.22 32 159.22 32C159.22 32 159.22 32 159.22 32C159.22 32 159.22 32 159.22 32C159.22 32 159.22 32 159.22 32C159.221 32 159.221 32 159.221 32C159.221 32 159.221 32 159.221 32C159.221 32 159.221 32 159.221 32C159.221 32 159.221 32 159.221 32C159.221 32 159.221 32 159.221 32C159.221 32 159.221 32 159.221 32C159.221 32 159.222 32 159.222 32C159.222 32 159.222 32 159.222 32C159.222 32 159.222 32 159.222 32C159.222 32 159.222 32 159.222 32C159.222 32 159.222 32 159.222 32C159.222 32 159.222 32 159.222 32C159.222 32 159.222 32 159.222 32C159.223 32 159.223 32 159.223 32C159.223 32 159.223 32 159.223 32C159.223 32 159.223 32 159.223 32C159.223 32 159.223 32 159.223 32C159.223 32 159.223 32 159.223 32C159.223 32 159.223 32 159.223 32C159.223 32 159.224 32 159.224 32C159.224 32 159.224 32 159.224 32C159.224 32 159.224 32 159.224 32C159.224 32 159.224 32 159.224 32C159.224 32 159.224 32 159.224 32C159.224 32 159.224 32 159.224 32C159.224 32 159.224 32 159.225 32C159.225 32 159.225 32 159.225 32C159.225 32 159.225 32 159.225 32C159.225 32 159.225 32 159.225 32C159.225 32 159.225 32 159.225 32C159.225 32 159.225 32 159.225 32C159.225 32 159.225 32 159.225 32C159.226 32 159.226 32 159.226 32C159.226 32 159.226 32 159.226 32C159.226 32 159.226 32 159.226 32C159.226 32 159.226 32 159.226 32C159.226 32 159.226 32 159.226 32C159.226 32 159.226 32 159.226 32C159.226 32 159.227 32 159.227 32C159.227 32 159.227 32 159.227 32C159.227 32 159.227 32 159.227 32C159.227 32 159.227 32 159.227 32C159.227 32 159.227 32 159.227 32C159.227 32 159.227 32 159.227 32C159.227 32 159.227 32 159.228 32C159.228 32 159.228 32 159.228 32C159.228 32 159.228 32 159.228 32C159.228 32 159.228 32 159.228 32C159.228 32 159.228 32 159.228 32C159.228 32 159.228 32 159.228 32C159.228 32 159.228 32 159.228 32C159.228 32 159.229 32 159.229 32C159.229 32 159.229 32 159.229 32C159.229 32 159.229 32 159.229 32C159.229 32 159.229 32 159.229 32C159.229 32 159.229 32 159.229 32C159.229 32 159.229 32 159.229 32C159.229 32 159.229 32 159.23 32C159.23 32 159.23 32 159.23 32C159.23 32 159.23 32 159.23 32C159.23 32 159.23 32 159.23 32C159.23 32 159.23 32 159.23 32C159.23 32 159.23 32 159.23 32C159.23 32 159.23 32 159.23 32C159.231 32 159.231 32 159.231 32C159.231 32 159.231 32 159.231 32C159.231 32 159.231 32 159.231 32C159.231 32 159.231 32 159.231 32C159.231 32 159.231 32 159.231 32C159.231 32 159.231 32 159.231 32C159.231 32 159.232 32 159.232 32C159.232 32 159.232 32 159.232 32C159.232 32 159.232 32 159.232 32C159.232 32 159.232 32 159.232 32C159.232 32 159.232 32 159.232 32C159.232 32 159.232 32 159.232 32C159.232 32 159.232 32 159.233 32C159.233 32 159.233 32 159.233 32C159.233 32 159.233 32 159.233 32C159.233 32 159.233 32 159.233 32C159.233 32 159.233 32 159.233 32C159.233 32 159.233 32 159.233 32C159.233 32 159.233 32 159.233 32C159.233 32 159.234 32 159.234 32C159.234 32 159.234 32 159.234 32C159.234 32 159.234 32 159.234 32C159.234 32 159.234 32 159.234 32C159.234 32 159.234 32 159.234 32C159.234 32 159.234 32 159.234 32C159.234 32 159.234 32 159.235 32C159.235 32 159.235 32 159.235 32C159.235 32 159.235 32 159.235 32C159.235 32 159.235 32 159.235 32C159.235 32 159.235 32 159.235 32C159.235 32 159.235 32 159.235 32C159.235 32 159.235 32 159.235 32C159.236 32 159.236 32 159.236 32C159.236 32 159.236 32 159.236 32C159.236 32 159.236 32 159.236 32C159.236 32 159.236 32 159.236 32C159.236 32 159.236 32 159.236 32C159.236 32 159.236 32 159.236 32C159.236 32 159.237 32 159.237 32C159.237 32 159.237 32 159.237 32C159.237 32 159.237 32 159.237 32C159.237 32 159.237 32 159.237 32C159.237 32 159.237 32 159.237 32C159.237 32 159.237 32 159.237 32C159.237 32 159.237 32 159.237 32C159.238 32 159.238 32 159.238 32C159.238 32 159.238 32 159.238 32C159.238 32 159.238 32 159.238 32C159.238 32 159.238 32 159.238 32C159.238 32 159.238 32 159.238 32C159.238 32 159.238 32 159.238 32C159.238 32 159.239 32 159.239 32C159.239 32 159.239 32 159.239 32C159.239 32 159.239 32 159.239 32C159.239 32 159.239 32 159.239 32C159.239 32 159.239 32 159.239 32C159.239 32 159.239 32 159.239 32C159.239 32 159.239 32 159.24 32C159.24 32 159.24 32 159.24 32C159.24 32 159.24 32 159.24 32C159.24 32 159.24 32 159.24 32C159.24 32 159.24 32 159.24 32C159.24 32 159.24 32 159.24 32C159.24 32 159.24 32 159.24 32C159.241 32 159.241 32 159.241 32C159.241 32 159.241 32 159.241 32C159.241 32 159.241 32 159.241 32C159.241 32 159.241 32 159.241 32C159.241 32 159.241 32 159.241 32C159.241 32 159.241 32 159.241 32C159.241 32 159.242 32 159.242 32C159.242 32 159.242 32 159.242 32C159.242 32 159.242 32 159.242 32C159.242 32 159.242 32 159.242 32C159.242 32 159.242 32 159.242 32C159.242 32 159.242 32 159.242 32C159.242 32 159.242 32 159.243 32C159.243 32 159.243 32 159.243 32C159.243 32 159.243 32 159.243 32C159.243 32 159.243 32 159.243 32C159.243 32 159.243 32 159.243 32C159.243 32 159.243 32 159.243 32C159.243 32 159.243 32 159.243 32C159.243 32 159.244 32 159.244 32C159.244 32 159.244 32 159.244 32C159.244 32 159.244 32 159.244 32C159.244 32 159.244 32 159.244 32C159.244 32 159.244 32 159.244 32C159.244 32 159.244 32 159.244 32C159.244 32 159.244 32 159.245 32C159.245 32 159.245 32 159.245 32C159.245 32 159.245 32 159.245 32C159.245 32 159.245 32 159.245 32C159.245 32 159.245 32 159.245 32C159.245 32 159.245 32 159.245 32C159.245 32 159.245 32 159.245 32C159.246 32 159.246 32 159.246 32C159.246 32 159.246 32 159.246 32C159.246 32 159.246 32 159.246 32C159.246 32 159.246 32 159.246 32C159.246 32 159.246 32 159.246 32C159.246 32 159.246 32 159.246 32C159.246 32 159.247 32 159.247 32C159.247 32 159.247 32 159.247 32C159.247 32 159.247 32 159.247 32C159.247 32 159.247 32 159.247 32C159.247 32 159.247 32 159.247 32C159.247 32 159.247 32 159.247 32C159.247 32 159.247 32 159.248 32C159.248 32 159.248 32 159.248 32C159.248 32 159.248 32 159.248 32C159.248 32 159.248 32 159.248 32C159.248 32 159.248 32 159.248 32C159.248 32 159.248 32 159.248 32C159.248 32 159.248 32 159.248 32C159.248 32 159.249 32 159.249 32C159.249 32 159.249 32 159.249 32C159.249 32 159.249 32 159.249 32C159.249 32 159.249 32 159.249 32C159.249 32 159.249 32 159.249 32C159.249 32 159.249 32 159.249 32C159.249 32 159.249 32 159.25 32C159.25 32 159.25 32 159.25 32C159.25 32 159.25 32 159.25 32C159.25 32 159.25 32 159.25 32C159.25 32 159.25 32 159.25 32C159.25 32 159.25 32 159.25 32C159.25 32 159.25 32 159.25 32C159.251 32 159.251 32 159.251 32C159.251 32 159.251 32 159.251 32C159.251 32 159.251 32 159.251 32C159.251 32 159.251 32 159.251 32C159.251 32 159.251 32 159.251 32C159.251 32 159.251 32 159.251 32C159.251 32 159.252 32 159.252 32C159.252 32 159.252 32 159.252 32C159.252 32 159.252 32 159.252 32C159.252 32 159.252 32 159.252 32C159.252 32 159.252 32 159.252 32C159.252 32 159.252 32 159.252 32C159.252 32 159.252 32 159.252 32C159.253 32 159.253 32 159.253 32C159.253 32 159.253 32 159.253 32C159.253 32 159.253 32 159.253 32C159.253 32 159.253 32 159.253 32C159.253 32 159.253 32 159.253 32C159.253 32 159.253 32 159.253 32C159.253 32 159.254 32 159.254 32C159.254 32 159.254 32 159.254 32C159.254 32 159.254 32 159.254 32C159.254 32 159.254 32 159.254 32C159.254 32 159.254 32 159.254 32C159.254 32 159.254 32 159.254 32C159.254 32 159.254 32 159.255 32C159.255 32 159.255 32 159.255 32C159.255 32 159.255 32 159.255 32C159.255 32 159.255 32 159.255 32V28C159.255 28 159.255 28 159.255 28C159.255 28 159.255 28 159.255 28C159.255 28 159.255 28 159.255 28C159.254 28 159.254 28 159.254 28C159.254 28 159.254 28 159.254 28C159.254 28 159.254 28 159.254 28C159.254 28 159.254 28 159.254 28C159.254 28 159.254 28 159.254 28C159.254 28 159.254 28 159.254 28C159.254 28 159.253 28 159.253 28C159.253 28 159.253 28 159.253 28C159.253 28 159.253 28 159.253 28C159.253 28 159.253 28 159.253 28C159.253 28 159.253 28 159.253 28C159.253 28 159.253 28 159.253 28C159.253 28 159.253 28 159.252 28C159.252 28 159.252 28 159.252 28C159.252 28 159.252 28 159.252 28C159.252 28 159.252 28 159.252 28C159.252 28 159.252 28 159.252 28C159.252 28 159.252 28 159.252 28C159.252 28 159.252 28 159.252 28C159.252 28 159.251 28 159.251 28C159.251 28 159.251 28 159.251 28C159.251 28 159.251 28 159.251 28C159.251 28 159.251 28 159.251 28C159.251 28 159.251 28 159.251 28C159.251 28 159.251 28 159.251 28C159.251 28 159.251 28 159.25 28C159.25 28 159.25 28 159.25 28C159.25 28 159.25 28 159.25 28C159.25 28 159.25 28 159.25 28C159.25 28 159.25 28 159.25 28C159.25 28 159.25 28 159.25 28C159.25 28 159.25 28 159.25 28C159.249 28 159.249 28 159.249 28C159.249 28 159.249 28 159.249 28C159.249 28 159.249 28 159.249 28C159.249 28 159.249 28 159.249 28C159.249 28 159.249 28 159.249 28C159.249 28 159.249 28 159.249 28C159.249 28 159.248 28 159.248 28C159.248 28 159.248 28 159.248 28C159.248 28 159.248 28 159.248 28C159.248 28 159.248 28 159.248 28C159.248 28 159.248 28 159.248 28C159.248 28 159.248 28 159.248 28C159.248 28 159.248 28 159.248 28C159.247 28 159.247 28 159.247 28C159.247 28 159.247 28 159.247 28C159.247 28 159.247 28 159.247 28C159.247 28 159.247 28 159.247 28C159.247 28 159.247 28 159.247 28C159.247 28 159.247 28 159.247 28C159.247 28 159.246 28 159.246 28C159.246 28 159.246 28 159.246 28C159.246 28 159.246 28 159.246 28C159.246 28 159.246 28 159.246 28C159.246 28 159.246 28 159.246 28C159.246 28 159.246 28 159.246 28C159.246 28 159.246 28 159.245 28C159.245 28 159.245 28 159.245 28C159.245 28 159.245 28 159.245 28C159.245 28 159.245 28 159.245 28C159.245 28 159.245 28 159.245 28C159.245 28 159.245 28 159.245 28C159.245 28 159.245 28 159.245 28C159.244 28 159.244 28 159.244 28C159.244 28 159.244 28 159.244 28C159.244 28 159.244 28 159.244 28C159.244 28 159.244 28 159.244 28C159.244 28 159.244 28 159.244 28C159.244 28 159.244 28 159.244 28C159.244 28 159.243 28 159.243 28C159.243 28 159.243 28 159.243 28C159.243 28 159.243 28 159.243 28C159.243 28 159.243 28 159.243 28C159.243 28 159.243 28 159.243 28C159.243 28 159.243 28 159.243 28C159.243 28 159.243 28 159.243 28C159.242 28 159.242 28 159.242 28C159.242 28 159.242 28 159.242 28C159.242 28 159.242 28 159.242 28C159.242 28 159.242 28 159.242 28C159.242 28 159.242 28 159.242 28C159.242 28 159.242 28 159.242 28C159.242 28 159.241 28 159.241 28C159.241 28 159.241 28 159.241 28C159.241 28 159.241 28 159.241 28C159.241 28 159.241 28 159.241 28C159.241 28 159.241 28 159.241 28C159.241 28 159.241 28 159.241 28C159.241 28 159.241 28 159.24 28C159.24 28 159.24 28 159.24 28C159.24 28 159.24 28 159.24 28C159.24 28 159.24 28 159.24 28C159.24 28 159.24 28 159.24 28C159.24 28 159.24 28 159.24 28C159.24 28 159.24 28 159.24 28C159.239 28 159.239 28 159.239 28C159.239 28 159.239 28 159.239 28C159.239 28 159.239 28 159.239 28C159.239 28 159.239 28 159.239 28C159.239 28 159.239 28 159.239 28C159.239 28 159.239 28 159.239 28C159.239 28 159.238 28 159.238 28C159.238 28 159.238 28 159.238 28C159.238 28 159.238 28 159.238 28C159.238 28 159.238 28 159.238 28C159.238 28 159.238 28 159.238 28C159.238 28 159.238 28 159.238 28C159.238 28 159.238 28 159.237 28C159.237 28 159.237 28 159.237 28C159.237 28 159.237 28 159.237 28C159.237 28 159.237 28 159.237 28C159.237 28 159.237 28 159.237 28C159.237 28 159.237 28 159.237 28C159.237 28 159.237 28 159.237 28C159.237 28 159.236 28 159.236 28C159.236 28 159.236 28 159.236 28C159.236 28 159.236 28 159.236 28C159.236 28 159.236 28 159.236 28C159.236 28 159.236 28 159.236 28C159.236 28 159.236 28 159.236 28C159.236 28 159.236 28 159.235 28C159.235 28 159.235 28 159.235 28C159.235 28 159.235 28 159.235 28C159.235 28 159.235 28 159.235 28C159.235 28 159.235 28 159.235 28C159.235 28 159.235 28 159.235 28C159.235 28 159.235 28 159.235 28C159.234 28 159.234 28 159.234 28C159.234 28 159.234 28 159.234 28C159.234 28 159.234 28 159.234 28C159.234 28 159.234 28 159.234 28C159.234 28 159.234 28 159.234 28C159.234 28 159.234 28 159.234 28C159.234 28 159.233 28 159.233 28C159.233 28 159.233 28 159.233 28C159.233 28 159.233 28 159.233 28C159.233 28 159.233 28 159.233 28C159.233 28 159.233 28 159.233 28C159.233 28 159.233 28 159.233 28C159.233 28 159.233 28 159.233 28C159.232 28 159.232 28 159.232 28C159.232 28 159.232 28 159.232 28C159.232 28 159.232 28 159.232 28C159.232 28 159.232 28 159.232 28C159.232 28 159.232 28 159.232 28C159.232 28 159.232 28 159.232 28C159.232 28 159.231 28 159.231 28C159.231 28 159.231 28 159.231 28C159.231 28 159.231 28 159.231 28C159.231 28 159.231 28 159.231 28C159.231 28 159.231 28 159.231 28C159.231 28 159.231 28 159.231 28C159.231 28 159.231 28 159.23 28C159.23 28 159.23 28 159.23 28C159.23 28 159.23 28 159.23 28C159.23 28 159.23 28 159.23 28C159.23 28 159.23 28 159.23 28C159.23 28 159.23 28 159.23 28C159.23 28 159.23 28 159.23 28C159.229 28 159.229 28 159.229 28C159.229 28 159.229 28 159.229 28C159.229 28 159.229 28 159.229 28C159.229 28 159.229 28 159.229 28C159.229 28 159.229 28 159.229 28C159.229 28 159.229 28 159.229 28C159.229 28 159.228 28 159.228 28C159.228 28 159.228 28 159.228 28C159.228 28 159.228 28 159.228 28C159.228 28 159.228 28 159.228 28C159.228 28 159.228 28 159.228 28C159.228 28 159.228 28 159.228 28C159.228 28 159.228 28 159.228 28C159.227 28 159.227 28 159.227 28C159.227 28 159.227 28 159.227 28C159.227 28 159.227 28 159.227 28C159.227 28 159.227 28 159.227 28C159.227 28 159.227 28 159.227 28C159.227 28 159.227 28 159.227 28C159.227 28 159.226 28 159.226 28C159.226 28 159.226 28 159.226 28C159.226 28 159.226 28 159.226 28C159.226 28 159.226 28 159.226 28C159.226 28 159.226 28 159.226 28C159.226 28 159.226 28 159.226 28C159.226 28 159.226 28 159.225 28C159.225 28 159.225 28 159.225 28C159.225 28 159.225 28 159.225 28C159.225 28 159.225 28 159.225 28C159.225 28 159.225 28 159.225 28C159.225 28 159.225 28 159.225 28C159.225 28 159.225 28 159.225 28C159.224 28 159.224 28 159.224 28C159.224 28 159.224 28 159.224 28C159.224 28 159.224 28 159.224 28C159.224 28 159.224 28 159.224 28C159.224 28 159.224 28 159.224 28C159.224 28 159.224 28 159.224 28C159.224 28 159.223 28 159.223 28C159.223 28 159.223 28 159.223 28C159.223 28 159.223 28 159.223 28C159.223 28 159.223 28 159.223 28C159.223 28 159.223 28 159.223 28C159.223 28 159.223 28 159.223 28C159.223 28 159.223 28 159.222 28C159.222 28 159.222 28 159.222 28C159.222 28 159.222 28 159.222 28C159.222 28 159.222 28 159.222 28C159.222 28 159.222 28 159.222 28C159.222 28 159.222 28 159.222 28C159.222 28 159.222 28 159.222 28C159.222 28 159.221 28 159.221 28C159.221 28 159.221 28 159.221 28C159.221 28 159.221 28 159.221 28C159.221 28 159.221 28 159.221 28C159.221 28 159.221 28 159.221 28C159.221 28 159.221 28 159.221 28C159.221 28 159.221 28 159.22 28C159.22 28 159.22 28 159.22 28C159.22 28 159.22 28 159.22 28C159.22 28 159.22 28 159.22 28C159.22 28 159.22 28 159.22 28C159.22 28 159.22 28 159.22 28C159.22 28 159.22 28 159.22 28C159.219 28 159.219 28 159.219 28C159.219 28 159.219 28 159.219 28C159.219 28 159.219 28 159.219 28C159.219 28 159.219 28 159.219 28C159.219 28 159.219 28 159.219 28C159.219 28 159.219 28 159.219 28C159.219 28 159.218 28 159.218 28C159.218 28 159.218 28 159.218 28C159.218 28 159.218 28 159.218 28C159.218 28 159.218 28 159.218 28C159.218 28 159.218 28 159.218 28C159.218 28 159.218 28 159.218 28C159.218 28 159.218 28 159.217 28C159.217 28 159.217 28 159.217 28C159.217 28 159.217 28 159.217 28C159.217 28 159.217 28 159.217 28C159.217 28 159.217 28 159.217 28C159.217 28 159.217 28 159.217 28C159.217 28 159.217 28 159.217 28C159.217 28 159.216 28 159.216 28C159.216 28 159.216 28 159.216 28C159.216 28 159.216 28 159.216 28C159.216 28 159.216 28 159.216 28C159.216 28 159.216 28 159.216 28C159.216 28 159.216 28 159.216 28C159.216 28 159.216 28 159.215 28C159.215 28 159.215 28 159.215 28C159.215 28 159.215 28 159.215 28C159.215 28 159.215 28 159.215 28C159.215 28 159.215 28 159.215 28C159.215 28 159.215 28 159.215 28C159.215 28 159.215 28 159.215 28C159.214 28 159.214 28 159.214 28C159.214 28 159.214 28 159.214 28C159.214 28 159.214 28 159.214 28C159.214 28 159.214 28 159.214 28C159.214 28 159.214 28 159.214 28C159.214 28 159.214 28 159.214 28C159.214 28 159.213 28 159.213 28C159.213 28 159.213 28 159.213 28C159.213 28 159.213 28 159.213 28C159.213 28 159.213 28 159.213 28C159.213 28 159.213 28 159.213 28C159.213 28 159.213 28 159.213 28C159.213 28 159.213 28 159.213 28C159.212 28 159.212 28 159.212 28C159.212 28 159.212 28 159.212 28C159.212 28 159.212 28 159.212 28C159.212 28 159.212 28 159.212 28C159.212 28 159.212 28 159.212 28C159.212 28 159.212 28 159.212 28C159.212 28 159.211 28 159.211 28C159.211 28 159.211 28 159.211 28C159.211 28 159.211 28 159.211 28C159.211 28 159.211 28 159.211 28C159.211 28 159.211 28 159.211 28C159.211 28 159.211 28 159.211 28C159.211 28 159.211 28 159.21 28C159.21 28 159.21 28 159.21 28C159.21 28 159.21 28 159.21 28C159.21 28 159.21 28 159.21 28C159.21 28 159.21 28 159.21 28C159.21 28 159.21 28 159.21 28C159.21 28 159.21 28 159.21 28C159.209 28 159.209 28 159.209 28C159.209 28 159.209 28 159.209 28C159.209 28 159.209 28 159.209 28C159.209 28 159.209 28 159.209 28C159.209 28 159.209 28 159.209 28C159.209 28 159.209 28 159.209 28C159.209 28 159.208 28 159.208 28C159.208 28 159.208 28 159.208 28C159.208 28 159.208 28 159.208 28C159.208 28 159.208 28 159.208 28C159.208 28 159.208 28 159.208 28C159.208 28 159.208 28 159.208 28C159.208 28 159.208 28 159.208 28C159.207 28 159.207 28 159.207 28C159.207 28 159.207 28 159.207 28C159.207 28 159.207 28 159.207 28C159.207 28 159.207 28 159.207 28C159.207 28 159.207 28 159.207 28C159.207 28 159.207 28 159.207 28C159.207 28 159.206 28 159.206 28C159.206 28 159.206 28 159.206 28C159.206 28 159.206 28 159.206 28C159.206 28 159.206 28 159.206 28C159.206 28 159.206 28 159.206 28C159.206 28 159.206 28 159.206 28C159.206 28 159.206 28 159.205 28C159.205 28 159.205 28 159.205 28C159.205 28 159.205 28 159.205 28C159.205 28 159.205 28 159.205 28C159.205 28 159.205 28 159.205 28C159.205 28 159.205 28 159.205 28C159.205 28 159.205 28 159.205 28C159.204 28 159.204 28 159.204 28C159.204 28 159.204 28 159.204 28C159.204 28 159.204 28 159.204 28C159.204 28 159.204 28 159.204 28C159.204 28 159.204 28 159.204 28C159.204 28 159.204 28 159.204 28C159.204 28 159.203 28 159.203 28C159.203 28 159.203 28 159.203 28C159.203 28 159.203 28 159.203 28C159.203 28 159.203 28 159.203 28C159.203 28 159.203 28 159.203 28C159.203 28 159.203 28 159.203 28C159.203 28 159.203 28 159.202 28C159.202 28 159.202 28 159.202 28C159.202 28 159.202 28 159.202 28C159.202 28 159.202 28 159.202 28C159.202 28 159.202 28 159.202 28C159.202 28 159.202 28 159.202 28C159.202 28 159.202 28 159.202 28C159.202 28 159.201 28 159.201 28C159.201 28 159.201 28 159.201 28C159.201 28 159.201 28 159.201 28C159.201 28 159.201 28 159.201 28C159.201 28 159.201 28 159.201 28C159.201 28 159.201 28 159.201 28C159.201 28 159.201 28 159.2 28C159.2 28 159.2 28 159.2 28C159.2 28 159.2 28 159.2 28C159.2 28 159.2 28 159.2 28C159.2 28 159.2 28 159.2 28C159.2 28 159.2 28 159.2 28C159.2 28 159.2 28 159.2 28C159.199 28 159.199 28 159.199 28C159.199 28 159.199 28 159.199 28C159.199 28 159.199 28 159.199 28C159.199 28 159.199 28 159.199 28C159.199 28 159.199 28 159.199 28C159.199 28 159.199 28 159.199 28C159.199 28 159.198 28 159.198 28C159.198 28 159.198 28 159.198 28C159.198 28 159.198 28 159.198 28C159.198 28 159.198 28 159.198 28C159.198 28 159.198 28 159.198 28C159.198 28 159.198 28 159.198 28C159.198 28 159.198 28 159.198 28C159.197 28 159.197 28 159.197 28C159.197 28 159.197 28 159.197 28C159.197 28 159.197 28 159.197 28C159.197 28 159.197 28 159.197 28C159.197 28 159.197 28 159.197 28C159.197 28 159.197 28 159.197 28C159.197 28 159.196 28 159.196 28C159.196 28 159.196 28 159.196 28C159.196 28 159.196 28 159.196 28C159.196 28 159.196 28 159.196 28C159.196 28 159.196 28 159.196 28C159.196 28 159.196 28 159.196 28C159.196 28 159.196 28 159.195 28C159.195 28 159.195 28 159.195 28C159.195 28 159.195 28 159.195 28C159.195 28 159.195 28 159.195 28C159.195 28 159.195 28 159.195 28C159.195 28 159.195 28 159.195 28C159.195 28 159.195 28 159.195 28C159.194 28 159.194 28 159.194 28C159.194 28 159.194 28 159.194 28C159.194 28 159.194 28 159.194 28C159.194 28 159.194 28 159.194 28C159.194 28 159.194 28 159.194 28C159.194 28 159.194 28 159.194 28C159.194 28 159.193 28 159.193 28C159.193 28 159.193 28 159.193 28C159.193 28 159.193 28 159.193 28C159.193 28 159.193 28 159.193 28C159.193 28 159.193 28 159.193 28C159.193 28 159.193 28 159.193 28C159.193 28 159.193 28 159.193 28C159.192 28 159.192 28 159.192 28C159.192 28 159.192 28 159.192 28C159.192 28 159.192 28 159.192 28C159.192 28 159.192 28 159.192 28C159.192 28 159.192 28 159.192 28C159.192 28 159.192 28 159.192 28C159.192 28 159.191 28 159.191 28C159.191 28 159.191 28 159.191 28C159.191 28 159.191 28 159.191 28C159.191 28 159.191 28 159.191 28C159.191 28 159.191 28 159.191 28C159.191 28 159.191 28 159.191 28C159.191 28 159.191 28 159.19 28C159.19 28 159.19 28 159.19 28C159.19 28 159.19 28 159.19 28C159.19 28 159.19 28 159.19 28C159.19 28 159.19 28 159.19 28C159.19 28 159.19 28 159.19 28C159.19 28 159.19 28 159.19 28C159.189 28 159.189 28 159.189 28C159.189 28 159.189 28 159.189 28C159.189 28 159.189 28 159.189 28C159.189 28 159.189 28 159.189 28C159.189 28 159.189 28 159.189 28C159.189 28 159.189 28 159.189 28C159.189 28 159.188 28 159.188 28C159.188 28 159.188 28 159.188 28C159.188 28 159.188 28 159.188 28C159.188 28 159.188 28 159.188 28C159.188 28 159.188 28 159.188 28C159.188 28 159.188 28 159.188 28C159.188 28 159.188 28 159.188 28C159.187 28 159.187 28 159.187 28C159.187 28 159.187 28 159.187 28C159.187 28 159.187 28 159.187 28C159.187 28 159.187 28 159.187 28C159.187 28 159.187 28 159.187 28C159.187 28 159.187 28 159.187 28C159.187 28 159.186 28 159.186 28C159.186 28 159.186 28 159.186 28C159.186 28 159.186 28 159.186 28C159.186 28 159.186 28 159.186 28C159.186 28 159.186 28 159.186 28C159.186 28 159.186 28 159.186 28C159.186 28 159.186 28 159.185 28C159.185 28 159.185 28 159.185 28C159.185 28 159.185 28 159.185 28C159.185 28 159.185 28 159.185 28C159.185 28 159.185 28 159.185 28C159.185 28 159.185 28 159.185 28C159.185 28 159.185 28 159.185 28C159.184 28 159.184 28 159.184 28C159.184 28 159.184 28 159.184 28C159.184 28 159.184 28 159.184 28C159.184 28 159.184 28 159.184 28C159.184 28 159.184 28 159.184 28C159.184 28 159.184 28 159.184 28C159.184 28 159.183 28 159.183 28C159.183 28 159.183 28 159.183 28C159.183 28 159.183 28 159.183 28C159.183 28 159.183 28 159.183 28C159.183 28 159.183 28 159.183 28C159.183 28 159.183 28 159.183 28C159.183 28 159.183 28 159.183 28C159.182 28 159.182 28 159.182 28C159.182 28 159.182 28 159.182 28C159.182 28 159.182 28 159.182 28C159.182 28 159.182 28 159.182 28C159.182 28 159.182 28 159.182 28C159.182 28 159.182 28 159.182 28C159.182 28 159.181 28 159.181 28C159.181 28 159.181 28 159.181 28C159.181 28 159.181 28 159.181 28C159.181 28 159.181 28 159.181 28C159.181 28 159.181 28 159.181 28C159.181 28 159.181 28 159.181 28C159.181 28 159.181 28 159.18 28C159.18 28 159.18 28 159.18 28C159.18 28 159.18 28 159.18 28C159.18 28 159.18 28 159.18 28C159.18 28 159.18 28 159.18 28C159.18 28 159.18 28 159.18 28C159.18 28 159.18 28 159.18 28C159.179 28 159.179 28 159.179 28C159.179 28 159.179 28 159.179 28C159.179 28 159.179 28 159.179 28C159.179 28 159.179 28 159.179 28C159.179 28 159.179 28 159.179 28C159.179 28 159.179 28 159.179 28C159.179 28 159.178 28 159.178 28C159.178 28 159.178 28 159.178 28C159.178 28 159.178 28 159.178 28C159.178 28 159.178 28 159.178 28C159.178 28 159.178 28 159.178 28C159.178 28 159.178 28 159.178 28C159.178 28 159.178 28 159.178 28C159.177 28 159.177 28 159.177 28C159.177 28 159.177 28 159.177 28C159.177 28 159.177 28 159.177 28C159.177 28 159.177 28 159.177 28C159.177 28 159.177 28 159.177 28C159.177 28 159.177 28 159.177 28C159.177 28 159.176 28 159.176 28C159.176 28 159.176 28 159.176 28C159.176 28 159.176 28 159.176 28C159.176 28 159.176 28 159.176 28C159.176 28 159.176 28 159.176 28C159.176 28 159.176 28 159.176 28C159.176 28 159.176 28 159.175 28C159.175 28 159.175 28 159.175 28C159.175 28 159.175 28 159.175 28C159.175 28 159.175 28 159.175 28V32ZM159.663 31.958C159.709 31.9484 159.733 31.9474 159.74 31.9474C159.746 31.9473 159.736 31.9479 159.716 31.9435C159.696 31.939 159.673 31.9313 159.653 31.9211C159.632 31.9112 159.623 31.9032 159.624 31.9039L162.166 28.8161C161.188 28.0104 160.004 27.8009 158.847 28.042L159.663 31.958ZM159.68 31.9487C159.682 31.9502 159.693 31.9571 159.713 31.9926C159.736 32.0335 159.778 32.1256 159.811 32.2977L163.739 31.5423C163.536 30.4861 163.04 29.4823 162.11 28.7713L159.68 31.9487ZM159.825 32.3657C159.906 32.7171 159.928 32.9705 159.925 33.1416C159.922 33.3107 159.895 33.3664 159.9 33.3542C159.911 33.3298 159.94 33.2878 159.976 33.2594C160.004 33.238 159.981 33.2668 159.85 33.2997L160.82 37.1803C161.991 36.8875 163.035 36.1788 163.57 34.9458C164.053 33.832 163.981 32.597 163.725 31.4743L159.825 32.3657ZM159.889 33.2903C159.128 33.4644 158.24 33.56 157.215 33.56V37.56C158.483 37.56 159.676 37.4423 160.781 37.1897L159.889 33.2903ZM177.147 10.72L179.141 10.8779L179.147 10.7991V10.72H177.147ZM176.827 14.76L174.834 14.6021L174.429 19.7133L178.188 16.2262L176.827 14.76ZM183.107 18.6L184.749 17.4579L184.742 17.4477L184.735 17.4375L183.107 18.6ZM179.068 18.28L179.999 20.0498L180.026 20.0359L180.052 20.0211L179.068 18.28ZM177.147 19.8L175.758 18.3612L175.147 18.9509V19.8H177.147ZM173.628 33C172.743 33 172.449 32.7821 172.364 32.6978C172.283 32.6177 172.068 32.3393 172.068 31.48H168.068C168.068 32.9674 168.446 34.449 169.551 35.5422C170.653 36.6312 172.138 37 173.628 37V33ZM172.068 31.48V19.04H168.068V31.48H172.068ZM172.068 19.04V6.56H168.068V19.04H172.068ZM172.068 6.56C172.068 5.70071 172.283 5.42233 172.364 5.34218C172.449 5.25791 172.743 5.04 173.628 5.04V1.04C172.138 1.04 170.653 1.40875 169.551 2.49782C168.446 3.591 168.068 5.07262 168.068 6.56H172.068ZM173.628 5.04C174.493 5.04 174.774 5.25491 174.853 5.33421C174.933 5.41352 175.147 5.69496 175.147 6.56H179.147C179.147 5.07838 178.776 3.59981 177.682 2.50579C176.588 1.41176 175.109 1.04 173.628 1.04V5.04ZM175.147 6.56V10.72H179.147V6.56H175.147ZM175.154 10.5621L174.834 14.6021L178.821 14.9179L179.141 10.8779L175.154 10.5621ZM178.188 16.2262C180.126 14.4284 181.981 13.68 183.787 13.68V9.68C180.741 9.68 177.956 10.9849 175.467 13.2938L178.188 16.2262ZM183.787 13.68C185.675 13.68 186.791 14.2685 187.51 15.2064C188.306 16.2452 188.868 18.0391 188.868 20.92H192.868C192.868 17.6409 192.249 14.8148 190.685 12.7736C189.044 10.6315 186.62 9.68 183.787 9.68V13.68ZM188.868 20.92V31.44H192.868V20.92H188.868ZM188.868 31.44C188.868 32.3184 188.649 32.6098 188.563 32.6958C188.477 32.7818 188.186 33 187.308 33V37C188.802 37 190.291 36.6249 191.392 35.5242C192.492 34.4235 192.868 32.935 192.868 31.44H188.868ZM187.308 33C186.429 33 186.138 32.7818 186.052 32.6958C185.966 32.6098 185.747 32.3184 185.747 31.44H181.747C181.747 32.935 182.123 34.4235 183.223 35.5242C184.324 36.6249 185.813 37 187.308 37V33ZM185.747 31.44V21.8H181.747V31.44H185.747ZM185.747 21.8C185.747 20.2192 185.55 18.6089 184.749 17.4579L181.466 19.7421C181.463 19.7381 181.485 19.7694 181.519 19.857C181.552 19.9442 181.59 20.0727 181.626 20.2522C181.699 20.6169 181.747 21.1241 181.747 21.8H185.747ZM184.735 17.4375C183.835 16.1769 182.437 15.76 181.107 15.76V19.76C181.382 19.76 181.505 19.8022 181.533 19.814C181.545 19.8188 181.537 19.8171 181.52 19.8038C181.503 19.79 181.489 19.7744 181.48 19.7625L184.735 17.4375ZM181.107 15.76C180.037 15.76 179.015 16.0123 178.083 16.5389L180.052 20.0211C180.347 19.8544 180.684 19.76 181.107 19.76V15.76ZM178.136 16.5102C177.374 16.9112 176.571 17.5768 175.758 18.3612L178.537 21.2388C179.271 20.5299 179.748 20.1822 179.999 20.0498L178.136 16.5102ZM175.147 19.8V31.48H179.147V19.8H175.147ZM175.147 31.48C175.147 32.345 174.933 32.6265 174.853 32.7058C174.774 32.7851 174.493 33 173.628 33V37C175.109 37 176.588 36.6282 177.682 35.5342C178.776 34.4402 179.147 32.9616 179.147 31.48H175.147Z" fill="#2D2D2D"/>
<path d="M18.4 70.32H20.4V68.32H18.4V70.32ZM32.72 70.32V68.32H30.72V70.32H32.72ZM25.6 116C23.5027 116 22.2982 115.482 21.6063 114.798C20.9185 114.118 20.4 112.939 20.4 110.88H16.4C16.4 113.567 17.0815 115.949 18.7937 117.642C20.5018 119.331 22.8973 120 25.6 120V116ZM20.4 110.88V70.32H16.4V110.88H20.4ZM18.4 68.32H8.24V72.32H18.4V68.32ZM8.24 68.32C6.57496 68.32 5.69352 67.9051 5.21421 67.4258C4.73491 66.9465 4.32 66.065 4.32 64.4H0.32C0.32 66.6816 0.89176 68.7602 2.38579 70.2542C3.87981 71.7482 5.95838 72.32 8.24 72.32V68.32ZM4.32 64.4C4.32 62.735 4.73491 61.8535 5.21421 61.3742C5.69352 60.8949 6.57496 60.48 8.24 60.48V56.48C5.95838 56.48 3.87981 57.0518 2.38579 58.5458C0.89176 60.0398 0.32 62.1184 0.32 64.4H4.32ZM8.24 60.48H25.6V56.48H8.24V60.48ZM25.6 60.48H42.96V56.48H25.6V60.48ZM42.96 60.48C44.625 60.48 45.5065 60.8949 45.9858 61.3742C46.4651 61.8535 46.88 62.735 46.88 64.4H50.88C50.88 62.1184 50.3082 60.0398 48.8142 58.5458C47.3202 57.0518 45.2416 56.48 42.96 56.48V60.48ZM46.88 64.4C46.88 66.065 46.4651 66.9465 45.9858 67.4258C45.5065 67.9051 44.625 68.32 42.96 68.32V72.32C45.2416 72.32 47.3202 71.7482 48.8142 70.2542C50.3082 68.7602 50.88 66.6816 50.88 64.4H46.88ZM42.96 68.32H32.72V72.32H42.96V68.32ZM30.72 70.32V110.88H34.72V70.32H30.72ZM30.72 110.88C30.72 112.945 30.2051 114.126 29.5258 114.806C28.8465 115.485 27.665 116 25.6 116V120C28.2816 120 30.6602 119.328 32.3542 117.634C34.0482 115.94 34.72 113.562 34.72 110.88H30.72ZM72.3719 81.12H70.3719V83.12H72.3719V81.12ZM91.9719 81.12V83.12H93.9719V81.12H91.9719ZM91.9719 93.52H93.9719V91.52H91.9719V93.52ZM72.3719 93.52V91.52H70.3719V93.52H72.3719ZM65.2519 116C63.1546 116 61.9501 115.482 61.2582 114.798C60.5704 114.118 60.0519 112.939 60.0519 110.88H56.0519C56.0519 113.567 56.7334 115.949 58.4456 117.642C60.1537 119.331 62.5492 120 65.2519 120V116ZM60.0519 110.88V65.6H56.0519V110.88H60.0519ZM60.0519 65.6C60.0519 63.5406 60.5704 62.3622 61.2582 61.6821C61.9501 60.9979 63.1546 60.48 65.2519 60.48V56.48C62.5492 56.48 60.1537 57.1488 58.4456 58.8379C56.7334 60.5311 56.0519 62.9127 56.0519 65.6H60.0519ZM65.2519 60.48C67.3169 60.48 68.4984 60.9949 69.1777 61.6742C69.857 62.3535 70.3719 63.535 70.3719 65.6H74.3719C74.3719 62.9184 73.7001 60.5398 72.0061 58.8458C70.3121 57.1518 67.9335 56.48 65.2519 56.48V60.48ZM70.3719 65.6V81.12H74.3719V65.6H70.3719ZM72.3719 83.12H91.9719V79.12H72.3719V83.12ZM93.9719 81.12V65.52H89.9719V81.12H93.9719ZM93.9719 65.52C93.9719 63.4874 94.4837 62.329 95.1581 61.6622C95.8366 60.9912 97.0212 60.48 99.0919 60.48V56.48C96.4159 56.48 94.0405 57.1421 92.3457 58.8178C90.6467 60.4977 89.9719 62.8593 89.9719 65.52H93.9719ZM99.0919 60.48C101.13 60.48 102.292 60.9882 102.958 61.6542C103.624 62.3202 104.132 63.4816 104.132 65.52H108.132C108.132 62.865 107.467 60.5065 105.786 58.8258C104.105 57.1451 101.747 56.48 99.0919 56.48V60.48ZM104.132 65.52V110.96H108.132V65.52H104.132ZM104.132 110.96C104.132 112.998 103.624 114.16 102.958 114.826C102.292 115.492 101.13 116 99.0919 116V120C101.747 120 104.105 119.335 105.786 117.654C107.467 115.974 108.132 113.615 108.132 110.96H104.132ZM99.0919 116C97.0212 116 95.8366 115.489 95.1581 114.818C94.4837 114.151 93.9719 112.993 93.9719 110.96H89.9719C89.9719 113.621 90.6467 115.982 92.3457 117.662C94.0405 119.338 96.4159 120 99.0919 120V116ZM93.9719 110.96V93.52H89.9719V110.96H93.9719ZM91.9719 91.52H82.1319V95.52H91.9719V91.52ZM82.1319 91.52H72.3719V95.52H82.1319V91.52ZM70.3719 93.52V110.88H74.3719V93.52H70.3719ZM70.3719 110.88C70.3719 112.945 69.857 114.126 69.1777 114.806C68.4984 115.485 67.3169 116 65.2519 116V120C67.9335 120 70.3121 119.328 72.0061 117.634C73.7001 115.94 74.3719 113.562 74.3719 110.88H70.3719ZM121.445 116.56L120.031 117.974L121.445 116.56ZM121.445 59.92L120.031 58.5058L121.445 59.92ZM134.325 70.32V68.32H132.325V70.32H134.325ZM134.325 81.36H132.325V83.36H134.325V81.36ZM134.325 93.36V91.36H132.325V93.36H134.325ZM134.325 106H132.325V108H134.325V106ZM125.205 116C124.108 116 123.391 115.678 122.859 115.146L120.031 117.974C121.419 119.362 123.208 120 125.205 120V116ZM122.859 115.146C122.327 114.614 122.005 113.897 122.005 112.8H118.005C118.005 114.797 118.643 116.586 120.031 117.974L122.859 115.146ZM122.005 112.8V63.68H118.005V112.8H122.005ZM122.005 63.68C122.005 62.5835 122.327 61.8659 122.859 61.3342L120.031 58.5058C118.643 59.8941 118.005 61.6832 118.005 63.68H122.005ZM122.859 61.3342C123.391 60.8025 124.108 60.48 125.205 60.48V56.48C123.208 56.48 121.419 57.1175 120.031 58.5058L122.859 61.3342ZM125.205 60.48H151.845V56.48H125.205V60.48ZM151.845 60.48C153.51 60.48 154.391 60.8949 154.871 61.3742C155.35 61.8535 155.765 62.735 155.765 64.4H159.765C159.765 62.1184 159.193 60.0398 157.699 58.5458C156.205 57.0518 154.127 56.48 151.845 56.48V60.48ZM155.765 64.4C155.765 66.065 155.35 66.9465 154.871 67.4258C154.391 67.9051 153.51 68.32 151.845 68.32V72.32C154.127 72.32 156.205 71.7482 157.699 70.2542C159.193 68.7602 159.765 66.6816 159.765 64.4H155.765ZM151.845 68.32H134.325V72.32H151.845V68.32ZM132.325 70.32V81.36H136.325V70.32H132.325ZM134.325 83.36H148.245V79.36H134.325V83.36ZM148.245 83.36C149.937 83.36 150.838 83.7816 151.331 84.2742C151.823 84.7669 152.245 85.6683 152.245 87.36H156.245C156.245 85.0517 155.667 82.9531 154.159 81.4458C152.652 79.9384 150.553 79.36 148.245 79.36V83.36ZM152.245 87.36C152.245 89.0517 151.823 89.9531 151.331 90.4458C150.838 90.9384 149.937 91.36 148.245 91.36V95.36C150.553 95.36 152.652 94.7816 154.159 93.2742C155.667 91.7669 156.245 89.6683 156.245 87.36H152.245ZM148.245 91.36H134.325V95.36H148.245V91.36ZM132.325 93.36V106H136.325V93.36H132.325ZM134.325 108H152.645V104H134.325V108ZM152.645 108C154.337 108 155.238 108.422 155.731 108.914C156.223 109.407 156.645 110.308 156.645 112H160.645C160.645 109.692 160.067 107.593 158.559 106.086C157.052 104.578 154.953 104 152.645 104V108ZM156.645 112C156.645 113.692 156.223 114.593 155.731 115.086C155.238 115.578 154.337 116 152.645 116V120C154.953 120 157.052 119.422 158.559 117.914C160.067 116.407 160.645 114.308 160.645 112H156.645ZM152.645 116H139.285V120H152.645V116ZM139.285 116H125.205V120H139.285V116ZM171.836 59.92L170.421 58.5058L171.836 59.92ZM184.716 70.32V68.32H182.716V70.32H184.716ZM184.716 83.36H182.716V85.36H184.716V83.36ZM184.716 95.28V93.28H182.716V95.28H184.716ZM177.596 116C175.498 116 174.294 115.482 173.602 114.798C172.914 114.118 172.396 112.939 172.396 110.88H168.396C168.396 113.567 169.077 115.949 170.789 117.642C172.497 119.331 174.893 120 177.596 120V116ZM172.396 110.88V63.68H168.396V110.88H172.396ZM172.396 63.68C172.396 62.5835 172.718 61.8659 173.25 61.3342L170.421 58.5058C169.033 59.8941 168.396 61.6832 168.396 63.68H172.396ZM173.25 61.3342C173.782 60.8025 174.499 60.48 175.596 60.48V56.48C173.599 56.48 171.81 57.1175 170.421 58.5058L173.25 61.3342ZM175.596 60.48H189.356V56.48H175.596V60.48ZM189.356 60.48H202.476V56.48H189.356V60.48ZM202.476 60.48C204.141 60.48 205.022 60.8949 205.501 61.3742C205.981 61.8535 206.396 62.735 206.396 64.4H210.396C210.396 62.1184 209.824 60.0398 208.33 58.5458C206.836 57.0518 204.757 56.48 202.476 56.48V60.48ZM206.396 64.4C206.396 66.065 205.981 66.9465 205.501 67.4258C205.022 67.9051 204.141 68.32 202.476 68.32V72.32C204.757 72.32 206.836 71.7482 208.33 70.2542C209.824 68.7602 210.396 66.6816 210.396 64.4H206.396ZM202.476 68.32H184.716V72.32H202.476V68.32ZM182.716 70.32V83.36H186.716V70.32H182.716ZM184.716 85.36H199.116V81.36H184.716V85.36ZM199.116 85.36C200.781 85.36 201.662 85.7749 202.141 86.2542C202.621 86.7335 203.036 87.615 203.036 89.28H207.036C207.036 86.9984 206.464 84.9198 204.97 83.4258C203.476 81.9318 201.397 81.36 199.116 81.36V85.36ZM203.036 89.28C203.036 90.9784 202.617 91.8835 202.132 92.3753C201.652 92.8621 200.774 93.28 199.116 93.28V97.28C201.404 97.28 203.486 96.6979 204.979 95.1847C206.467 93.6765 207.036 91.5816 207.036 89.28H203.036ZM199.116 93.28H184.716V97.28H199.116V93.28ZM182.716 95.28V110.88H186.716V95.28H182.716ZM182.716 110.88C182.716 112.945 182.201 114.126 181.521 114.806C180.842 115.485 179.661 116 177.596 116V120C180.277 120 182.656 119.328 184.35 117.634C186.044 115.94 186.716 113.562 186.716 110.88H182.716ZM216.517 116.64L215.103 118.054L216.517 116.64ZM218.277 106.96L219.633 108.43L219.636 108.428L218.277 106.96ZM234.117 90.32L235.71 91.5292L235.713 91.5252L234.117 90.32ZM237.957 70.72L236.491 72.0809L236.504 72.0942L236.516 72.1073L237.957 70.72ZM226.517 70.32L225.44 68.6346L225.298 68.7255L225.173 68.8389L226.517 70.32ZM218.277 70.32L216.863 71.7342L218.277 70.32ZM216.517 66.4L214.531 66.1617L214.526 66.201L214.523 66.2405L216.517 66.4ZM218.757 62.56L217.524 60.9854L217.461 61.0344L217.403 61.0881L218.757 62.56ZM248.277 62.48L246.895 63.9262L246.901 63.9313L246.906 63.9364L248.277 62.48ZM235.797 106.8L234.376 105.392L230.236 109.57L236.065 108.782L235.797 106.8ZM220.117 116C219.06 116 218.401 115.696 217.931 115.226L215.103 118.054C216.446 119.398 218.187 120 220.117 120V116ZM217.931 115.226C217.461 114.756 217.157 114.097 217.157 113.04H213.157C213.157 114.969 213.759 116.711 215.103 118.054L217.931 115.226ZM217.157 113.04V112.8H213.157V113.04H217.157ZM217.157 112.8C217.157 111.591 217.782 110.139 219.633 108.43L216.92 105.49C214.612 107.621 213.157 110.062 213.157 112.8H217.157ZM219.636 108.428C226.867 101.732 232.246 96.0931 235.71 91.5292L232.524 89.1108C229.268 93.4002 224.087 98.8548 216.918 105.492L219.636 108.428ZM235.713 91.5252C239.746 86.1846 242.037 81.2702 242.037 76.88H238.037C238.037 79.9564 236.381 84.0021 232.521 89.1148L235.713 91.5252ZM242.037 76.88C242.037 73.8734 241.25 71.2561 239.398 69.3327L236.516 72.1073C237.437 73.0639 238.037 74.5533 238.037 76.88H242.037ZM239.422 69.3591C237.59 67.3855 235.125 66.48 232.277 66.48V70.48C234.228 70.48 235.551 71.0678 236.491 72.0809L239.422 69.3591ZM232.277 66.48C229.909 66.48 227.621 67.2414 225.44 68.6346L227.594 72.0054C229.253 70.9453 230.805 70.48 232.277 70.48V66.48ZM225.173 68.8389C223.948 69.95 223 70.28 222.297 70.28C221.617 70.28 220.756 69.9708 219.691 68.9058L216.863 71.7342C218.411 73.2825 220.23 74.28 222.297 74.28C224.34 74.28 226.205 73.3034 227.861 71.8011L225.173 68.8389ZM219.691 68.9058C218.671 67.8857 218.466 67.1214 218.511 66.5595L214.523 66.2405C214.355 68.3453 215.323 70.1943 216.863 71.7342L219.691 68.9058ZM218.503 66.6383C218.589 65.9215 219.005 65.0491 220.111 64.0319L217.403 61.0881C215.842 62.5242 214.765 64.2118 214.531 66.1617L218.503 66.6383ZM219.99 64.1346C224.049 60.9562 228.756 59.36 234.197 59.36V55.36C227.904 55.36 222.318 57.2305 217.524 60.9854L219.99 64.1346ZM234.197 59.36C239.593 59.36 243.759 60.9302 246.895 63.9262L249.658 61.0338C245.648 57.2032 240.428 55.36 234.197 55.36V59.36ZM246.906 63.9364C250.075 66.9191 251.717 70.8962 251.717 76.08H255.717C255.717 69.9571 253.732 64.8676 249.648 61.0236L246.906 63.9364ZM251.717 76.08C251.717 83.65 246.277 93.3853 234.376 105.392L237.217 108.208C249.21 96.108 255.717 85.3633 255.717 76.08H251.717ZM236.065 108.782C239.968 108.255 243.096 108 245.477 108V104C242.844 104 239.519 104.279 235.529 104.818L236.065 108.782ZM245.477 108H250.437V104H245.477V108ZM250.437 108C252.129 108 253.03 108.422 253.523 108.914C254.015 109.407 254.437 110.308 254.437 112H258.437C258.437 109.692 257.858 107.593 256.351 106.086C254.844 104.578 252.745 104 250.437 104V108ZM254.437 112C254.437 113.692 254.015 114.593 253.523 115.086C253.03 115.578 252.129 116 250.437 116V120C252.745 120 254.844 119.422 256.351 117.914C257.858 116.407 258.437 114.308 258.437 112H254.437ZM250.437 116H235.797V120H250.437V116ZM235.797 116H220.117V120H235.797V116ZM268.867 116.56L267.453 117.974L268.867 116.56ZM268.867 59.92L267.453 58.5058L268.867 59.92ZM281.747 70.32V68.32H279.747V70.32H281.747ZM281.747 81.36H279.747V83.36H281.747V81.36ZM281.747 93.36V91.36H279.747V93.36H281.747ZM281.747 106H279.747V108H281.747V106ZM272.627 116C271.53 116 270.813 115.678 270.281 115.146L267.453 117.974C268.841 119.362 270.63 120 272.627 120V116ZM270.281 115.146C269.749 114.614 269.427 113.897 269.427 112.8H265.427C265.427 114.797 266.064 116.586 267.453 117.974L270.281 115.146ZM269.427 112.8V63.68H265.427V112.8H269.427ZM269.427 63.68C269.427 62.5835 269.749 61.8659 270.281 61.3342L267.453 58.5058C266.064 59.8941 265.427 61.6832 265.427 63.68H269.427ZM270.281 61.3342C270.813 60.8025 271.53 60.48 272.627 60.48V56.48C270.63 56.48 268.841 57.1175 267.453 58.5058L270.281 61.3342ZM272.627 60.48H299.267V56.48H272.627V60.48ZM299.267 60.48C300.932 60.48 301.813 60.8949 302.293 61.3742C302.772 61.8535 303.187 62.735 303.187 64.4H307.187C307.187 62.1184 306.615 60.0398 305.121 58.5458C303.627 57.0518 301.548 56.48 299.267 56.48V60.48ZM303.187 64.4C303.187 66.065 302.772 66.9465 302.293 67.4258C301.813 67.9051 300.932 68.32 299.267 68.32V72.32C301.548 72.32 303.627 71.7482 305.121 70.2542C306.615 68.7602 307.187 66.6816 307.187 64.4H303.187ZM299.267 68.32H281.747V72.32H299.267V68.32ZM279.747 70.32V81.36H283.747V70.32H279.747ZM281.747 83.36H295.667V79.36H281.747V83.36ZM295.667 83.36C297.359 83.36 298.26 83.7816 298.753 84.2742C299.245 84.7669 299.667 85.6683 299.667 87.36H303.667C303.667 85.0517 303.088 82.9531 301.581 81.4458C300.074 79.9384 297.975 79.36 295.667 79.36V83.36ZM299.667 87.36C299.667 89.0517 299.245 89.9531 298.753 90.4458C298.26 90.9384 297.359 91.36 295.667 91.36V95.36C297.975 95.36 300.074 94.7816 301.581 93.2742C303.088 91.7669 303.667 89.6683 303.667 87.36H299.667ZM295.667 91.36H281.747V95.36H295.667V91.36ZM279.747 93.36V106H283.747V93.36H279.747ZM281.747 108H300.067V104H281.747V108ZM300.067 108C301.759 108 302.66 108.422 303.153 108.914C303.645 109.407 304.067 110.308 304.067 112H308.067C308.067 109.692 307.488 107.593 305.981 106.086C304.474 104.578 302.375 104 300.067 104V108ZM304.067 112C304.067 113.692 303.645 114.593 303.153 115.086C302.66 115.578 301.759 116 300.067 116V120C302.375 120 304.474 119.422 305.981 117.914C307.488 116.407 308.067 114.308 308.067 112H304.067ZM300.067 116H286.707V120H300.067V116ZM286.707 116H272.627V120H286.707V116Z" fill="#2D2D2D"/>
</svg>
