<svg width="213" height="239" viewBox="0 0 213 239" fill="none" xmlns="http://www.w3.org/2000/svg">
<ellipse rx="58.8543" ry="30.1274" transform="matrix(0.997712 -0.067605 0.0667097 0.997772 126.848 204.605)" fill="#CCCCCC"/>
<path fill-rule="evenodd" clip-rule="evenodd" d="M163.175 41.0354C159.551 30.601 149.321 27.3383 140.325 33.748L102.642 60.5983L61.0772 39.3974C51.2376 34.3785 41.1007 38.9996 38.4357 49.719L34.6465 64.9607C31.9815 75.6801 37.7978 88.4385 47.6374 93.4575L52.8172 96.0996L45.9763 100.974C36.9805 107.384 32.6256 121.038 36.2493 131.473L40.9701 145.066C44.5938 155.501 54.8239 158.763 63.8196 152.353L105.241 122.84L145.552 143.401C155.392 148.42 165.529 143.799 168.194 133.08L171.983 117.838C174.648 107.118 168.832 94.36 158.992 89.3411L155.066 87.3384L158.168 85.1276C167.164 78.7179 171.519 65.0631 167.895 54.6287L163.175 41.0354Z" fill="#BB9A9A"/>
<circle cx="96.1321" cy="49.4598" r="25" fill="#4E7B57"/>
<circle cx="96.1321" cy="92.8629" r="25" fill="#4E7B57"/>
<circle cx="96.1321" cy="130.21" r="25" fill="#4E7B57"/>
<ellipse cx="82.161" cy="46.6661" rx="2.00528" ry="2.01875" fill="white"/>
<ellipse cx="92.1874" cy="45.6567" rx="2.00528" ry="2.01875" fill="white"/>
<path d="M84.338 32.2929C84.338 31.5454 84.4085 30.7681 84.3266 30.0261C84.2323 29.1713 83.7152 28.5371 83.5192 27.7478C83.0679 25.9307 81.7863 24.2702 80.9604 22.6074C79.891 20.4542 78.2078 18.2816 76.5708 16.5511C74.2568 14.1051 72.6376 10.9884 70.009 8.82328C67.1578 6.47478 62.7515 5.07232 60.6952 9.21253C60.0623 10.4868 59.5693 11.1749 59.5693 12.6128C59.5693 13.7921 60.3587 14.1583 61.5254 14.1583C62.6864 14.1583 64.219 14.3875 65.1417 13.4943C66.128 12.5396 66.5903 11.6539 67.1887 10.449C67.7359 9.3473 66.3813 9.00646 65.5056 9.00646C64.3507 9.00646 64.0366 9.25875 63.0492 9.78496C62.2632 10.2039 62.0257 11.3004 62.0257 12.0976C62.0257 12.664 63.1032 13.2906 63.6178 12.8761C64.1167 12.4743 64.4244 11.758 64.846 11.2275C65.6608 10.2022 64.0867 10.4771 64.0727 10.449" stroke="#2D2D2D" stroke-width="3" stroke-linecap="round"/>
<path d="M102.761 30.2322C102.761 26.7377 102.255 22.7792 103.011 19.3561C103.623 16.5819 104.682 13.4667 106.241 11.0673C107.946 8.4408 109.891 3.73052 113.2 2.7785C114.205 2.48943 114.964 2 116.066 2C117.05 2 117.686 2.27263 118.477 2.8243C119.756 3.71564 119.515 5.32812 118.523 6.32757C117.436 7.4216 115.48 8.49028 114.224 7.15187C113.746 6.6427 113.814 5.74232 113.814 5.09112C113.814 4.13443 114.35 3.98113 114.952 3.44252C115.266 3.16145 116.326 2.64975 116.635 3.23645C116.81 3.56913 117.116 4.69692 116.84 5.04533C116.365 5.64251 115.915 5.77712 115.247 6.0757C114.697 6.32201 115.071 5.09112 114.224 5.09112" stroke="#2D2D2D" stroke-width="3" stroke-linecap="round"/>
<path d="M78.678 53.6903C78.678 54.2598 78.5146 55.1313 78.7415 55.6535C79.3809 57.1247 81.7378 57.8923 83.0736 58.4096C84.4395 58.9384 85.969 59.126 87.4184 59.1897C89.9774 59.3023 91.8809 58.4977 94.0499 57.1306C95.6718 56.1083 97.2223 54.9522 98.509 53.524C98.9988 52.9804 99.4872 52.3858 99.4872 51.6184" stroke="white" stroke-width="3" stroke-linecap="round"/>
<path d="M19.3634 6.37681L20.0344 18.0501L29.4068 25.1268L17.6359 25.8142L10.4832 35.1232L9.81223 23.4499L0.439821 16.3732L12.2107 15.6858L19.3634 6.37681Z" fill="#D2C67A"/>
<path d="M202.363 146.377L203.034 158.05L212.407 165.127L200.636 165.814L193.483 175.123L192.812 163.45L183.44 156.373L195.211 155.686L202.363 146.377Z" fill="#D2C67A"/>
</svg>
